#N canvas 0 25 1274 694 10;
#N canvas 534 376 623 424 applaud 0;
#X obj 147 151 noise~;
#X obj 142 401 outlet~;
#X obj 141 340 hip~ 1800;
#X obj 138 260 *~;
#X obj 139 286 *~;
#X obj 141 361 lop~ 5000;
#X obj 140 317 vcf~ 300 3.939;
#X obj 233 272 loadbang;
#X obj 185 214 bp~ 101.7 0.55;
#X msg 233 295 4.2;
#X obj 170 187 *~;
#X text 152 24 Bravo! Jolly Good show!;
#X obj 259 67 inlet density;
#X obj 186 64 inlet~;
#X obj 186 85 sqrt~;
#X obj 317 188 *~ 10000;
#X obj 359 66 inlet~ grainspectrum;
#X obj 185 243 *~;
#X connect 0 0 10 0;
#X connect 2 0 5 0;
#X connect 3 0 4 0;
#X connect 3 0 4 1;
#X connect 4 0 6 0;
#X connect 5 0 1 0;
#X connect 6 0 2 0;
#X connect 7 0 9 0;
#X connect 8 0 17 0;
#X connect 9 0 6 2;
#X connect 10 0 3 0;
#X connect 10 0 3 1;
#X connect 10 0 8 0;
#X connect 12 0 8 1;
#X connect 13 0 14 0;
#X connect 14 0 10 1;
#X connect 15 0 17 1;
#X connect 16 0 15 0;
#X connect 17 0 6 1;
#X restore 405 316 pd applaud;
#X obj 329 211 clip~ 0 1;
#X obj 456 220 clip~ 0 1;
#X obj 563 227 clip 0 1;
#X obj 562 267 * 500;
#X obj 351 185 /~ 127;
#X obj 450 189 /~ 127;
#X obj 594 191 / 127;
#X obj 279 147 hsl 128 15 0 127 0 0 empty empty empty -2 -8 0 10 -262144
-1 -1 0 1;
#X obj 442 143 hsl 128 15 0 127 0 0 empty empty empty -2 -8 0 10 -262144
-1 -1 0 1;
#X obj 625 139 hsl 128 15 0 127 0 0 empty empty empty -2 -8 0 10 -262144
-1 -1 0 1;
#X obj 407 399 outlet~;
#X obj 306 95 inlet;
#X obj 436 91 inlet;
#X obj 604 87 inlet;
#X connect 0 0 11 0;
#X connect 1 0 0 0;
#X connect 2 0 0 2;
#X connect 3 0 4 0;
#X connect 4 0 0 1;
#X connect 5 0 1 0;
#X connect 6 0 2 0;
#X connect 7 0 3 0;
#X connect 8 0 5 0;
#X connect 9 0 6 0;
#X connect 10 0 7 0;
#X connect 12 0 5 0;
#X connect 13 0 6 0;
#X connect 14 0 7 0;
