#N canvas 0 25 1280 696 12;
#X obj 27 15 inlet;
#X obj 27 198 outlet;
#X obj 27 39 bng 15 250 50 0 empty empty empty 17 7 0 10 -262144 -1
-1;
#X text 39 412 input: bang or any event;
#X text 38 431 output: number between 0 and 1;
#X text 40 466 Les Objets Volants 2008;
#X obj 27 71 random \$1;
#X obj 27 151 / \$3;
#X obj 27 105 + \$2;
#X connect 0 0 2 0;
#X connect 2 0 6 0;
#X connect 6 0 8 0;
#X connect 7 0 1 0;
#X connect 8 0 7 0;
