#N canvas 0 25 1274 694 10;
#X obj 225 152 noise~;
#X obj 225 220 hip~ 5000;
#X obj 225 241 hip~ 5000;
#X obj 225 262 lop~ 8000;
#X obj 225 283 lop~ 8000;
#X obj 307 361 *~;
#X obj 395 361 *~;
#X obj 307 462 *~;
#X obj 324 416 +~;
#X obj 307 482 bp~ 6000 7;
#X obj 307 503 hip~ 4000;
#X obj 307 385 *~;
#X obj 307 313 *~ -90;
#X obj 307 289 +~ 1;
#X obj 351 241 lop~ 2;
#X obj 351 217 lop~ 2;
#X obj 307 265 *~ 30;
#X obj 395 265 *~ 10;
#X obj 395 289 +~ 1;
#X obj 395 313 *~ -20;
#X obj 307 337 phasor~;
#X obj 395 337 phasor~;
#X obj 324 440 lop~ 70;
#X obj 515 248 metro 3000;
#X obj 516 296 sel 0 1;
#X obj 307 547 *~;
#X obj 365 524 lop~ 1;
#X msg 487 343 0;
#X msg 522 343 1;
#X obj 515 273 random 3;
#X obj 307 525 *~ 0.1;
#X obj 462 96 inlet;
#X obj 306 613 outlet~;
#X connect 0 0 1 0;
#X connect 0 0 15 0;
#X connect 1 0 2 0;
#X connect 2 0 3 0;
#X connect 3 0 4 0;
#X connect 4 0 7 0;
#X connect 5 0 11 0;
#X connect 5 0 11 1;
#X connect 6 0 8 1;
#X connect 7 0 9 0;
#X connect 8 0 22 0;
#X connect 9 0 10 0;
#X connect 10 0 30 0;
#X connect 11 0 8 0;
#X connect 12 0 20 0;
#X connect 13 0 12 0;
#X connect 14 0 16 0;
#X connect 14 0 17 0;
#X connect 15 0 14 0;
#X connect 16 0 13 0;
#X connect 17 0 18 0;
#X connect 18 0 19 0;
#X connect 19 0 21 0;
#X connect 20 0 5 0;
#X connect 20 0 5 1;
#X connect 21 0 6 0;
#X connect 21 0 6 1;
#X connect 22 0 7 1;
#X connect 23 0 29 0;
#X connect 24 0 27 0;
#X connect 24 1 28 0;
#X connect 25 0 32 0;
#X connect 26 0 25 1;
#X connect 27 0 26 0;
#X connect 28 0 26 0;
#X connect 29 0 24 0;
#X connect 30 0 25 0;
#X connect 31 0 23 0;
