#N canvas 0 25 1274 694 10;
#X obj 359 381 *~;
#X obj 360 304 osc~ 3.6;
#X obj 359 409 *~;
#X obj 360 331 +~ 1;
#X obj 360 355 *~ 0.5;
#X obj 359 435 *~;
#X obj 424 325 *~ 300;
#X obj 358 469 *~;
#X obj 425 302 osc~ 120;
#X obj 504 287 noise~;
#X obj 506 378 clip~ 0 1;
#X obj 506 354 *~ 1e+09;
#X obj 506 331 lop~ 0.1;
#X obj 505 309 lop~ 0.1;
#X obj 473 458 *~;
#X obj 359 512 *~ 0.05;
#X obj 424 375 osc~ 300;
#X obj 425 350 +~ 2000;
#X obj 398 61 inlet;
#X obj 360 608 outlet~;
#X obj 495 59 inlet;
#X obj 313 572 *~ 10;
#X connect 0 0 2 0;
#X connect 0 0 2 1;
#X connect 1 0 3 0;
#X connect 2 0 5 0;
#X connect 2 0 5 1;
#X connect 3 0 4 0;
#X connect 4 0 0 0;
#X connect 4 0 0 1;
#X connect 5 0 7 0;
#X connect 6 0 17 0;
#X connect 7 0 15 0;
#X connect 8 0 6 0;
#X connect 9 0 13 0;
#X connect 10 0 14 1;
#X connect 11 0 10 0;
#X connect 12 0 11 0;
#X connect 13 0 12 0;
#X connect 14 0 15 0;
#X connect 15 0 21 0;
#X connect 16 0 7 1;
#X connect 17 0 16 0;
#X connect 18 0 1 0;
#X connect 20 0 17 1;
#X connect 21 0 19 0;
