#N canvas 0 25 1274 694 10;
#X obj 363 197 phasor~;
#X obj 280 412 *~ 0.1;
#X obj 425 261 cos~;
#X obj 461 282 cos~;
#X obj 364 174 sig~ 1.43;
#X obj 363 257 cos~;
#X obj 363 280 *~;
#X obj 280 389 *~;
#X obj 281 256 *~ 5.84;
#X obj 281 234 min~ 0.1714;
#X obj 281 278 wrap~;
#X obj 363 234 *~ 40.6;
#X obj 363 354 *~;
#X obj 425 234 *~ 3147;
#X obj 461 262 *~ 2;
#X obj 461 302 *~ 0.3;
#X obj 281 300 -~ 0.5;
#X obj 281 322 *~;
#X obj 281 344 *~ -4;
#X obj 281 366 +~ 1;
#X obj 358 76 inlet;
#X obj 282 526 outlet~;
#X obj 281 481 *~ 10;
#X connect 0 0 9 0;
#X connect 0 0 11 0;
#X connect 0 0 13 0;
#X connect 1 0 22 0;
#X connect 2 0 12 1;
#X connect 3 0 15 0;
#X connect 4 0 0 0;
#X connect 5 0 6 0;
#X connect 5 0 6 1;
#X connect 6 0 12 0;
#X connect 7 0 1 0;
#X connect 8 0 10 0;
#X connect 9 0 8 0;
#X connect 10 0 16 0;
#X connect 11 0 5 0;
#X connect 12 0 7 1;
#X connect 13 0 2 0;
#X connect 13 0 14 0;
#X connect 14 0 3 0;
#X connect 15 0 12 1;
#X connect 16 0 17 0;
#X connect 16 0 17 1;
#X connect 17 0 18 0;
#X connect 18 0 19 0;
#X connect 19 0 7 0;
#X connect 20 0 4 0;
#X connect 22 0 21 0;
