#N canvas 0 25 1274 694 10;
#X obj 348 408 *~;
#X obj 349 370 *~;
#X obj 349 334 *~;
#X obj 381 228 unpack 1 2 3 4;
#X obj 347 435 hip~ 20;
#X obj 350 289 cos~;
#X obj 413 288 cos~;
#X obj 488 287 cos~;
#X obj 558 287 cos~;
#X obj 558 257 phasor~;
#X obj 489 257 phasor~;
#X obj 413 258 phasor~;
#X obj 351 258 phasor~;
#X obj 381 181 loadbang;
#X text 384 478 night critters \, ajf2005;
#X msg 381 205 2134 4.279 20.4 15.5;
#X obj 363 452 osc~ 0.01;
#X obj 346 477 *~;
#X obj 346 499 *~ 0.007;
#X obj 604 173 hsl 128 15 0 127 0 0 empty empty empty -2 -8 0 10 -262144
-1 -1 9600 1;
#X obj 551 125 hsl 128 15 0 127 0 0 empty empty empty -2 -8 0 10 -262144
-1 -1 11500 1;
#X obj 479 98 hsl 128 15 0 100 0 0 empty empty empty -2 -8 0 10 -262144
-1 -1 6600 1;
#X obj 403 60 hsl 128 15 0 1000 0 0 empty empty empty -2 -8 0 10 -262144
-1 -1 7100 1;
#X obj 318 128 inlet;
#X obj 399 126 inlet;
#X obj 475 149 inlet;
#X obj 546 173 inlet;
#X obj 346 541 outlet~;
#X connect 0 0 4 0;
#X connect 1 0 0 0;
#X connect 2 0 1 0;
#X connect 3 0 12 0;
#X connect 3 1 11 0;
#X connect 3 2 10 0;
#X connect 3 3 9 0;
#X connect 4 0 17 0;
#X connect 5 0 2 0;
#X connect 6 0 2 1;
#X connect 7 0 1 1;
#X connect 8 0 0 1;
#X connect 9 0 8 0;
#X connect 10 0 7 0;
#X connect 11 0 6 0;
#X connect 12 0 5 0;
#X connect 13 0 15 0;
#X connect 15 0 3 0;
#X connect 16 0 17 1;
#X connect 17 0 18 0;
#X connect 18 0 27 0;
#X connect 19 0 9 0;
#X connect 20 0 10 0;
#X connect 21 0 11 0;
#X connect 22 0 12 0;
#X connect 23 0 12 0;
#X connect 24 0 11 0;
#X connect 25 0 10 0;
#X connect 26 0 9 0;
