#N canvas 0 25 1274 694 10;
#X obj 76 35 inlet~;
#X obj 76 90 biquad~ 1.86972 -0.872325 0.000650245 0.00130049 0.000650245
;
#X text 195 69 lo x3;
#X obj 76 110 biquad~ 1.86972 -0.872325 0.000650245 0.00130049 0.000650245
;
#X obj 76 130 biquad~ 1.86972 -0.872325 0.000650245 0.00130049 0.000650245
;
#X obj 204 182 biquad~ 1.36591 -0.385279 0.307361 0 -0.307361;
#X text 339 162 mid x3;
#X obj 204 202 biquad~ 1.36591 -0.385279 0.307361 0 -0.307361;
#X obj 204 222 biquad~ 1.36591 -0.385279 0.307361 0 -0.307361;
#X obj 346 273 biquad~ 1.63386 -0.729864 0.840931 -1.68186 0.840931
;
#X text 486 251 hi x2;
#X obj 346 293 biquad~ 1.63386 -0.729864 0.840931 -1.68186 0.840931
;
#N canvas 0 22 454 304 scalelog 0;
#X obj 20 155 exp;
#X obj 20 107 *;
#X obj 20 130 +;
#X obj 98 87 log;
#X obj 194 84 log;
#X obj 123 123 t b f;
#X obj 123 145 -;
#X obj 20 183 outlet;
#X obj 20 19 inlet;
#X obj 100 51 inlet;
#X obj 205 47 inlet;
#X connect 0 0 7 0;
#X connect 1 0 2 0;
#X connect 2 0 0 0;
#X connect 3 0 2 1;
#X connect 3 0 5 0;
#X connect 4 0 6 0;
#X connect 5 0 6 0;
#X connect 5 1 6 1;
#X connect 6 0 1 1;
#X connect 8 0 1 0;
#X connect 9 0 3 0;
#X connect 10 0 4 0;
#X restore 698 393 pd scalelog;
#X obj 344 379 *~ 1;
#X obj 202 379 *~ 1;
#X obj 77 379 *~ 1;
#X msg 722 358 0.2;
#N canvas 0 22 454 304 scalelog 0;
#X obj 20 155 exp;
#X obj 20 107 *;
#X obj 20 130 +;
#X obj 98 87 log;
#X obj 194 84 log;
#X obj 123 123 t b f;
#X obj 123 145 -;
#X obj 20 183 outlet;
#X obj 20 19 inlet;
#X obj 100 51 inlet;
#X obj 205 47 inlet;
#X connect 0 0 7 0;
#X connect 1 0 2 0;
#X connect 2 0 0 0;
#X connect 3 0 2 1;
#X connect 3 0 5 0;
#X connect 4 0 6 0;
#X connect 5 0 6 0;
#X connect 5 1 6 1;
#X connect 6 0 1 1;
#X connect 8 0 1 0;
#X connect 9 0 3 0;
#X connect 10 0 4 0;
#X restore 819 495 pd scalelog;
#X msg 843 460 0.2;
#N canvas 0 22 454 304 scalelog 0;
#X obj 20 155 exp;
#X obj 20 107 *;
#X obj 20 130 +;
#X obj 98 87 log;
#X obj 194 84 log;
#X obj 123 123 t b f;
#X obj 123 145 -;
#X obj 20 183 outlet;
#X obj 20 19 inlet;
#X obj 100 51 inlet;
#X obj 205 47 inlet;
#X connect 0 0 7 0;
#X connect 1 0 2 0;
#X connect 2 0 0 0;
#X connect 3 0 2 1;
#X connect 3 0 5 0;
#X connect 4 0 6 0;
#X connect 5 0 6 0;
#X connect 5 1 6 1;
#X connect 6 0 1 1;
#X connect 8 0 1 0;
#X connect 9 0 3 0;
#X connect 10 0 4 0;
#X restore 942 616 pd scalelog;
#X msg 966 581 0.2;
#X obj 129 482 outlet~;
#X obj 365 356 - 0.2;
#X obj 225 354 - 0.2;
#X obj 98 354 - 0.2;
#X msg 999 581 7.5;
#X msg 876 459 7.5;
#X msg 755 358 7.5;
#X obj 674 28 inlet;
#X obj 807 40 inlet;
#X obj 914 37 inlet;
#X obj 126 570 cnv 15 110 20 empty empty empty 20 12 0 14 -24198 -66577
0;
#X text 129 572 derek at umatic.nl;
#X text 130 545 original patch by:;
#X floatatom 676 449 5 0 0 0 - - -;
#X obj 721 333 loadbang;
#X obj 843 437 loadbang;
#X obj 966 557 loadbang;
#X connect 0 0 1 0;
#X connect 0 0 5 0;
#X connect 0 0 9 0;
#X connect 1 0 3 0;
#X connect 3 0 4 0;
#X connect 4 0 15 0;
#X connect 5 0 7 0;
#X connect 7 0 8 0;
#X connect 8 0 14 0;
#X connect 9 0 11 0;
#X connect 11 0 13 0;
#X connect 12 0 22 0;
#X connect 12 0 34 0;
#X connect 13 0 21 0;
#X connect 14 0 21 0;
#X connect 15 0 21 0;
#X connect 16 0 12 1;
#X connect 17 0 23 0;
#X connect 18 0 17 1;
#X connect 19 0 24 0;
#X connect 20 0 19 1;
#X connect 22 0 13 1;
#X connect 23 0 14 1;
#X connect 24 0 15 1;
#X connect 25 0 19 2;
#X connect 26 0 17 2;
#X connect 27 0 12 2;
#X connect 28 0 12 0;
#X connect 29 0 17 0;
#X connect 30 0 19 0;
#X connect 35 0 16 0;
#X connect 35 0 27 0;
#X connect 36 0 18 0;
#X connect 36 0 26 0;
#X connect 37 0 20 0;
#X connect 37 0 25 0;
