#N canvas 0 25 1280 696 10;
#X obj 295 308 noise~;
#X obj 190 270 sig~ 1;
#X obj 217 299 /~;
#X obj 265 249 *~;
#X obj 265 219 *~;
#X obj 265 181 nbx 5 14 1 10 0 1 empty empty pulsewidth 0 -6 1 8 -262144
-1 -1 10 256;
#X obj 265 271 +~ 1;
#X obj 241 473 +~;
#X obj 217 443 *~ 0.1;
#X obj 279 412 *~;
#X obj 241 501 delwrite~ a 400;
#X obj 351 266 vd~ a;
#X obj 351 242 +~ 200;
#X obj 351 163 cos~;
#X obj 295 337 lop~ 200;
#X obj 279 442 *~ 0.3;
#X obj 367 198 nbx 5 14 1 20 0 1 empty empty chop 0 -6 1 8 -262144
-1 -1 20 256;
#X obj 351 218 *~;
#X obj 351 137 phasor~;
#X obj 351 115 nbx 5 14 1 20 0 1 empty empty speed 0 -6 1 8 -262144
-1 -1 20 256;
#X obj 376 338 outlet~;
#X obj 438 339 outlet~;
#X obj 250 72 inlet;
#X obj 337 71 inlet;
#X obj 437 76 inlet;
#X text 196 54 pulsewidth 1 - 10;
#X text 329 51 speed 1 - 20;
#X text 440 54 chop 1 - 20;
#X connect 0 0 14 0;
#X connect 1 0 2 0;
#X connect 2 0 8 0;
#X connect 2 0 9 0;
#X connect 3 0 6 0;
#X connect 4 0 3 0;
#X connect 4 0 3 1;
#X connect 5 0 4 0;
#X connect 6 0 2 1;
#X connect 7 0 10 0;
#X connect 8 0 7 0;
#X connect 9 0 15 0;
#X connect 11 0 20 0;
#X connect 11 0 21 0;
#X connect 12 0 11 0;
#X connect 13 0 4 1;
#X connect 13 0 17 0;
#X connect 14 0 9 1;
#X connect 15 0 7 1;
#X connect 16 0 17 1;
#X connect 17 0 12 0;
#X connect 18 0 13 0;
#X connect 19 0 18 0;
#X connect 22 0 5 0;
#X connect 23 0 19 0;
#X connect 24 0 16 0;
