#N canvas 0 25 1274 694 10;
#X obj 180 390 sig~ 1;
#X obj 180 422 /~;
#X obj 233 399 +~ 1;
#X obj 234 373 *~;
#X obj 234 322 osc~ 20;
#X obj 289 399 noise~;
#X obj 180 447 *~;
#X obj 289 421 hip~ 8000;
#X obj 234 344 *~ 14;
#X obj 180 473 bp~ 10000 15;
#X obj 289 445 *~ 0.1;
#X obj 180 574 *~ 0.2;
#X obj 300 213 inlet;
#X obj 180 643 outlet~;
#X connect 0 0 1 0;
#X connect 1 0 6 0;
#X connect 2 0 1 1;
#X connect 3 0 2 0;
#X connect 4 0 8 0;
#X connect 5 0 7 0;
#X connect 6 0 9 0;
#X connect 7 0 6 1;
#X connect 7 0 10 0;
#X connect 8 0 3 0;
#X connect 8 0 3 1;
#X connect 9 0 11 0;
#X connect 10 0 9 0;
#X connect 11 0 13 0;
#X connect 12 0 4 0;
