#N canvas 0 25 1274 694 10;
#X obj 377 550 +~;
#X obj 377 572 cos~;
#X obj 411 491 osc~;
#X obj 361 607 *~;
#X obj 411 468 *~;
#X obj 411 517 *~;
#X obj 393 300 r~ carrier-frequency;
#X obj 551 300 r~ modulator-ratio;
#X obj 686 299 r~ modulator-index;
#X obj 126 300 r~ output-amplitude;
#X text 520 525 the simple FM core;
#X obj 124 245 s~ output-amplitude;
#X obj 390 241 s~ carrier-frequency;
#X obj 542 242 s~ modulator-ratio;
#X obj 681 244 s~ modulator-index;
#X text 173 612 ------------------------------------;
#X text 426 612 ------------------------------------;
#X msg 123 199 \$1 1000;
#X obj 123 220 line~;
#X obj 389 214 line~;
#X obj 542 214 line~;
#X obj 682 216 line~;
#X obj 126 161 hsl 64 12 0 1 0 1 empty empty amp 10 6 1 8 -262144 -1
-1 5670 1;
#X obj 123 178 * 0.5;
#X obj 393 150 hsl 64 12 0 1 0 1 empty empty cf 10 6 1 8 -262144 -1
-1 4440 1;
#X obj 389 168 * 1000;
#X obj 545 156 hsl 64 12 0 1 0 1 empty empty mf 10 6 1 8 -262144 -1
-1 5420 1;
#X obj 685 159 hsl 64 12 0 1 0 1 empty empty index 10 6 1 8 -262144
-1 -1 0 1;
#X obj 682 175 * 2;
#X obj 123 134 varia 10 100;
#X obj 391 108 varia 10 100;
#X obj 531 112 varia 10 100;
#X obj 682 115 varia 10 100;
#X msg 542 193 \$1 1000;
#X msg 389 192 \$1 1000;
#X obj 542 173 * 312;
#X msg 682 195 \$1 1000;
#X obj 388 66 t b b b b;
#X obj 388 17 inlet;
#X obj 361 659 outlet~;
#X text 787 412 comment;
#X text 422 415 comment;
#X connect 0 0 1 0;
#X connect 1 0 3 1;
#X connect 2 0 5 0;
#X connect 3 0 39 0;
#X connect 4 0 2 0;
#X connect 5 0 0 1;
#X connect 6 0 4 0;
#X connect 7 0 4 1;
#X connect 8 0 5 1;
#X connect 9 0 3 0;
#X connect 17 0 18 0;
#X connect 18 0 11 0;
#X connect 19 0 12 0;
#X connect 20 0 13 0;
#X connect 21 0 14 0;
#X connect 22 0 23 0;
#X connect 23 0 17 0;
#X connect 24 0 25 0;
#X connect 25 0 34 0;
#X connect 26 0 35 0;
#X connect 27 0 28 0;
#X connect 28 0 36 0;
#X connect 29 0 22 0;
#X connect 30 0 24 0;
#X connect 31 0 26 0;
#X connect 32 0 27 0;
#X connect 33 0 20 0;
#X connect 34 0 19 0;
#X connect 35 0 33 0;
#X connect 36 0 21 0;
#X connect 37 0 29 0;
#X connect 37 1 30 0;
#X connect 37 2 31 0;
#X connect 37 3 32 0;
#X connect 38 0 37 0;
