#N canvas 0 25 1274 694 12;
#X obj 360 274 noise~;
#X obj 359 354 vcf~ 15;
#X obj 215 315 + 100;
#X obj 215 289 random 12000;
#X obj 358 380 lop~ 1000;
#X obj 385 327 line~;
#X obj 385 301 pack f f;
#X obj 215 262 metro 15;
#X obj 262 191 random 20;
#X obj 267 59 inlet;
#X obj 262 113 bng 15 250 50 0 empty empty empty 17 7 0 10 -262144
-1 -1;
#X obj 267 150 t b b;
#X obj 359 512 outlet~;
#X connect 0 0 1 0;
#X connect 1 0 4 0;
#X connect 2 0 6 0;
#X connect 3 0 2 0;
#X connect 4 0 12 0;
#X connect 5 0 1 1;
#X connect 6 0 5 0;
#X connect 7 0 3 0;
#X connect 8 0 7 1;
#X connect 9 0 10 0;
#X connect 10 0 11 0;
#X connect 11 0 7 0;
#X connect 11 1 8 0;
