#N canvas 0 25 1274 666 10;
#X obj 425 392 catch~ gauche;
#X obj 487 409 catch~ droite;
#X obj 379 347 dbtorms;
#X obj 379 388 line~;
#X obj 379 460 *~;
#X obj 379 368 pack 0 50;
#X obj 469 459 *~;
#X obj 425 430 hip~ 3;
#X obj 487 430 hip~ 3;
#X obj 379 531 dac~ 1 2;
#X obj 379 503 clip~ -0.98 0.98;
#X obj 469 480 clip~ -0.98 0.98;
#X obj 420 122 vsl 30 128 0 127 0 0 empty empty volume 0 -9 0 10 -258113
-1 -1 7800 1;
#X connect 0 0 7 0;
#X connect 1 0 8 0;
#X connect 2 0 5 0;
#X connect 3 0 6 0;
#X connect 3 0 4 0;
#X connect 4 0 10 0;
#X connect 5 0 3 0;
#X connect 6 0 11 0;
#X connect 7 0 4 1;
#X connect 8 0 6 1;
#X connect 10 0 9 0;
#X connect 11 0 9 1;
#X connect 12 0 2 0;
#X coords 0 -1 1 1 100 170 2 400 100;
