#N canvas 1 84 1274 682 10;
#X obj 934 278 mainmix;
#X obj 198 -180 vu-meter circada;
#X obj 1038 278 reverb;
#X text 202 -199 circada;
#X text 304 -198 chirp;
#X text 408 -199 cricket;
#X text 512 -199 critters;
#X text 621 -198 fan4;
#X text 721 -199 flutter;
#X text 826 -198 glou;
#X text 931 -198 hissing;
#X text -24 14 shortping;
#X text 804 203 rain;
#X text 384 209 synth;
#X text 491 211 boat;
#X text 593 211 bounce;
#X text 701 212 bubbles;
#X obj 1044 390 cpu_load;
#X floatatom 1044 413 5 0 0 0 - - -;
#X obj 1043 433 preview;
#X msg 944 456 \; pd dsp 1;
#X msg 996 456 \; pd dsp 0;
#X obj 408 -180 vu-meter cricket;
#X obj 512 -180 vu-meter critters;
#X obj 616 -180 vu-meter fan4;
#X obj 721 -180 vu-meter flutter;
#X obj 825 -180 vu-meter glou;
#X obj 931 -180 vu-meter hissing;
#X obj 1038 -182 vu-meter modulation;
#X obj 800 221 vu-meter rain;
#X obj 95 -181 vu-meter Drips;
#X obj 303 -180 vu-meter chirp;
#X obj 376 228 vu-meter synth;
#X obj 483 229 vu-meter boat;
#X obj 588 229 vu-meter bounce;
#X obj 694 229 vu-meter bubbles;
#X obj 89 197 ctlin;
#X floatatom 96 276 5 0 0 0 - - -;
#X floatatom 117 231 5 0 0 0 - - -;
#X obj 84 -260 midilearn 14;
#X obj 91 -238 midilearn 23;
#X obj 1053 -254 midilearn 14;
#X obj 202 -251 midilearn 15;
#X obj 209 -229 midilearn 24;
#X obj 321 -254 midilearn 16;
#X obj 328 -232 midilearn 25;
#X obj 454 -259 midilearn 17;
#X obj 546 -256 midilearn 18;
#X obj 641 -257 midilearn 19;
#X obj 743 -259 midilearn 20;
#X obj 830 -257 midilearn 21;
#X obj 944 -251 midilearn 22;
#X obj 461 -237 midilearn 26;
#X obj 553 -234 midilearn 27;
#X obj 648 -235 midilearn 28;
#X obj 750 -237 midilearn 29;
#X obj 837 -235 midilearn 30;
#X obj 951 -229 midilearn 31;
#X obj 1060 -232 midilearn 32;
#X obj 432 98 midilearn 2;
#X obj 439 120 midilearn 33;
#X obj 487 150 midilearn 3;
#X obj 594 142 midilearn 4;
#X obj 718 146 midilearn 5;
#X obj 832 142 midilearn 6;
#X obj 494 172 midilearn 34;
#X obj 601 164 midilearn 35;
#X obj 725 168 midilearn 36;
#X obj 839 164 midilearn 37;
#X connect 17 0 18 0;
#X connect 36 0 37 0;
#X connect 36 1 38 0;
#X connect 39 0 30 0;
#X connect 40 0 30 1;
#X connect 41 0 28 0;
#X connect 42 0 1 0;
#X connect 43 0 1 1;
#X connect 44 0 31 0;
#X connect 45 0 31 1;
#X connect 46 0 22 0;
#X connect 47 0 23 0;
#X connect 48 0 24 0;
#X connect 49 0 25 0;
#X connect 50 0 26 0;
#X connect 51 0 27 0;
#X connect 52 0 22 1;
#X connect 53 0 23 1;
#X connect 54 0 24 1;
#X connect 55 0 25 1;
#X connect 56 0 26 1;
#X connect 57 0 27 1;
#X connect 58 0 28 1;
#X connect 59 0 32 0;
#X connect 60 0 32 1;
#X connect 61 0 33 0;
#X connect 62 0 34 0;
#X connect 63 0 35 0;
#X connect 64 0 29 0;
#X connect 65 0 33 1;
#X connect 66 0 34 1;
#X connect 67 0 35 1;
#X connect 68 0 29 1;
#X coords 0 0 1 1 85 60 0;
