#N canvas 33 108 1006 684 10;
#X obj 413 522 *~;
#X floatatom 412 375 0 0 0 0 - - -;
#X floatatom 312 454 0 0 0 0 - - -;
#X obj 312 488 +~;
#X floatatom 435 492 0 0 0 0 - - -;
#X text 417 199 frequency;
#X text 350 199 modulation;
#X obj 312 559 osc~;
#X text 526 497 index;
#X text 461 497 modulation;
#X obj 412 409 osc~;
#X text 243 23 FREQUENCY MODULATION ("FM") utilisant deux oscillateurs
;
#X text 177 415 frequence porteuse;
#X text 180 427 carrier frequency;
#X text 347 184 frequence de modulation;
#X text 459 486 index de modulation;
#X text 163 494 a la frequence porteuse;
#X text 174 537 oscillateur principal;
#X text 174 484 ajouter un modulateur;
#X text 180 474 comment;
#X floatatom 613 533 5 0 0 0 - - -;
#X obj 471 429 * 700;
#X obj 312 423 random 200;
#X obj 524 392 varia 100 20;
#X obj 522 299 random 200;
#X obj 322 246 varia 100 20;
#X obj 405 346 +;
#X obj 311 300 * 4;
#X floatatom 360 298 5 0 0 0 - - -;
#X obj 361 63 inlet;
#X obj 363 97 bng 15 250 50 0 empty empty empty 17 7 0 10 -262144 -1
-1;
#X obj 364 124 t b b b b;
#X obj 306 631 outlet~;
#X connect 0 0 3 1;
#X connect 1 0 10 0;
#X connect 2 0 3 0;
#X connect 3 0 7 0;
#X connect 4 0 0 1;
#X connect 7 0 32 0;
#X connect 10 0 0 0;
#X connect 21 0 4 0;
#X connect 22 0 2 0;
#X connect 23 0 20 0;
#X connect 23 0 21 0;
#X connect 24 0 26 1;
#X connect 25 0 27 0;
#X connect 25 0 28 0;
#X connect 26 0 1 0;
#X connect 27 0 26 0;
#X connect 29 0 30 0;
#X connect 30 0 31 0;
#X connect 31 0 22 0;
#X connect 31 1 25 0;
#X connect 31 2 24 0;
#X connect 31 3 23 0;
