#N canvas 89 251 639 423 10;
#X obj 106 188 *~;
#X obj 111 27 noise~;
#X obj 141 57 lop~ 1;
#X obj 142 107 *~;
#X obj 66 58 hip~ 1000;
#X obj 141 133 *~;
#X obj 142 80 *~ 10;
#X obj 141 157 *~ 600;
#X text 42 1 hissing 3rd attempt;
#X obj 179 238 *~ 2;
#X obj 172 315 outlet~;
#X connect 0 0 9 0;
#X connect 1 0 2 0;
#X connect 1 0 4 0;
#X connect 2 0 6 0;
#X connect 3 0 5 0;
#X connect 3 0 5 1;
#X connect 4 0 0 0;
#X connect 5 0 7 0;
#X connect 6 0 3 0;
#X connect 6 0 3 1;
#X connect 7 0 0 1;
#X connect 9 0 10 0;
