#N canvas 0 25 1280 696 10;
#X obj 336 428 hip~ 3;
#X obj 497 440 hip~ 3;
#X obj 322 494 clip~ -0.98 0.98;
#X obj 479 490 clip~ -0.98 0.98;
#X obj 336 390 catch~ preview-g;
#X obj 487 394 catch~ preview-d;
#X obj 387 541 dac~ 3 4;
#X connect 0 0 2 0;
#X connect 1 0 3 0;
#X connect 2 0 6 0;
#X connect 3 0 6 1;
#X connect 4 0 0 0;
#X connect 5 0 1 0;
