#N canvas 536 282 481 329 10;
#X obj 49 143 phasor~ 0;
#X obj 126 143 phasor~ 0;
#X obj 58 49 inlet;
#X obj 135 41 inlet;
#X obj 66 208 -~;
#X obj 126 197 +~;
#X obj 125 220 wrap~;
#X obj 64 272 +~;
#X floatatom 57 92 5 0 0 0 - - -;
#X floatatom 135 90 5 0 0 0 - - -;
#X text 24 91 freq;
#X text 176 91 duty;
#X obj 135 66 clip 0 100;
#X obj 142 113 / 100;
#X obj 63 305 outlet~;
#X connect 0 0 4 0;
#X connect 1 0 5 0;
#X connect 2 0 8 0;
#X connect 3 0 12 0;
#X connect 4 0 7 0;
#X connect 5 0 6 0;
#X connect 6 0 4 1;
#X connect 7 0 14 0;
#X connect 8 0 0 0;
#X connect 8 0 1 0;
#X connect 9 0 13 0;
#X connect 12 0 9 0;
#X connect 13 0 7 1;
#X connect 13 0 5 1;
