#N canvas 0 25 1274 694 10;
#X obj 309 62 bng 15 250 50 0 empty empty empty 17 7 0 10 -262144 -1
-1;
#X obj 425 511 *~;
#X obj 330 491 *~;
#X obj 689 273 switch~;
#X obj 606 248 tgl 15 0 empty empty empty 17 7 0 10 -262144 -1 -1 0
1;
#X obj 311 36 inlet;
#X obj 472 448 bing 50 50 100;
#X obj 548 68 bng 15 250 50 0 empty empty empty 17 7 0 10 -262144 -1
-1;
#X obj 550 42 inlet;
#X obj 544 126 t b b b;
#X obj 265 396 fade 1000;
#X obj 625 181 del 1000;
#X obj 409 395 varia 20;
#X obj 367 129 t b b b b b;
#X obj 253 215 sinusoide 1;
#X obj 351 422 fade 1000;
#X obj 226 171 random_sinusoide 1;
#X obj 202 321 limiteur;
#X obj 269 312 limiteur;
#X obj 373 578 throw~ synth-g;
#X obj 549 580 throw~ synth-d;
#X connect 0 0 13 0;
#X connect 1 0 20 0;
#X connect 2 0 19 0;
#X connect 4 0 3 0;
#X connect 5 0 0 0;
#X connect 6 0 1 1;
#X connect 6 0 2 1;
#X connect 7 0 9 0;
#X connect 8 0 7 0;
#X connect 9 0 11 0;
#X connect 9 1 12 0;
#X connect 9 2 10 2;
#X connect 9 2 15 2;
#X connect 10 0 2 0;
#X connect 11 0 4 0;
#X connect 11 0 16 0;
#X connect 13 0 10 1;
#X connect 13 0 15 1;
#X connect 13 1 16 0;
#X connect 13 2 12 0;
#X connect 13 3 6 0;
#X connect 13 4 4 0;
#X connect 14 0 17 0;
#X connect 14 1 18 0;
#X connect 15 0 1 0;
#X connect 17 0 10 0;
#X connect 18 0 15 0;
