#N canvas 0 25 1274 694 10;
#X obj 460 159 bng 15 250 50 0 empty empty empty 17 7 0 10 -262144
-1 -1;
#X obj 474 475 *~;
#X obj 379 455 *~;
#X obj 690 333 switch~;
#X obj 607 308 tgl 15 0 empty empty empty 17 7 0 10 -262144 -1 -1 0
1;
#X obj 462 133 inlet;
#X obj 531 377 bing 50 50 100;
#X obj 404 404 balance;
#X obj 585 159 bng 15 250 50 0 empty empty empty 17 7 0 10 -262144
-1 -1;
#X obj 587 133 inlet;
#X obj 587 187 t b b b;
#X obj 462 187 t b b b b b;
#X obj 375 321 fade 1000;
#X obj 626 241 del 1000;
#X obj 451 323 varia 20;
#X obj 356 275 cricket_chirp;
#X obj 358 231 bing 50 70 10;
#X obj 370 365 limiteur;
#X obj 367 537 throw~ chirp-g;
#X obj 597 537 throw~ chirp-d;
#X connect 0 0 11 0;
#X connect 1 0 19 0;
#X connect 2 0 18 0;
#X connect 4 0 3 0;
#X connect 5 0 0 0;
#X connect 6 0 1 1;
#X connect 6 0 2 1;
#X connect 7 0 2 0;
#X connect 7 1 1 0;
#X connect 8 0 10 0;
#X connect 9 0 8 0;
#X connect 10 0 13 0;
#X connect 10 1 14 0;
#X connect 10 2 12 2;
#X connect 11 0 16 0;
#X connect 11 1 12 1;
#X connect 11 2 14 0;
#X connect 11 3 6 0;
#X connect 11 4 4 0;
#X connect 12 0 17 0;
#X connect 13 0 4 0;
#X connect 14 0 7 1;
#X connect 15 0 12 0;
#X connect 16 0 15 0;
#X connect 17 0 7 0;
