#N canvas 0 25 1274 694 10;
#X obj 309 62 bng 15 250 50 0 empty empty empty 17 7 0 10 -262144 -1
-1;
#X obj 443 406 *~;
#X obj 348 386 *~;
#X obj 686 256 switch~;
#X obj 603 231 tgl 15 0 empty empty empty 17 7 0 10 -262144 -1 -1 1
1;
#X obj 311 36 inlet;
#X obj 490 343 bing 50 50 100;
#X obj 371 328 balance;
#X obj 548 68 bng 15 250 50 0 empty empty empty 17 7 0 10 -262144 -1
-1;
#X obj 550 42 inlet;
#X obj 544 126 t b b b;
#X obj 317 283 fade 1000;
#X obj 622 164 del 1000;
#X obj 367 129 t b b b b b;
#X obj 313 198 R2D2;
#X obj 277 232 limiteur;
#X obj 391 473 throw~ R2D2-g;
#X obj 483 476 throw~ R2D2-d;
#X obj 428 289 varia 20;
#X connect 0 0 13 0;
#X connect 1 0 17 0;
#X connect 2 0 16 0;
#X connect 4 0 3 0;
#X connect 5 0 0 0;
#X connect 6 0 1 1;
#X connect 6 0 2 1;
#X connect 7 0 2 0;
#X connect 7 1 1 0;
#X connect 8 0 10 0;
#X connect 9 0 8 0;
#X connect 10 0 12 0;
#X connect 10 1 18 0;
#X connect 10 2 11 2;
#X connect 11 0 7 0;
#X connect 12 0 4 0;
#X connect 12 0 14 0;
#X connect 13 0 11 1;
#X connect 13 1 14 0;
#X connect 13 2 18 0;
#X connect 13 3 6 0;
#X connect 13 4 4 0;
#X connect 14 0 15 0;
#X connect 15 0 11 0;
#X connect 18 0 7 1;
