#N canvas 0 25 1274 694 10;
#X obj 431 59 bng 15 250 50 0 empty empty empty 17 7 0 10 -262144 -1
-1;
#X obj 484 406 *~;
#X obj 390 403 *~;
#X obj 661 233 switch~;
#X obj 578 208 tgl 15 0 empty empty empty 17 7 0 10 -262144 -1 -1 1
1;
#X obj 433 33 inlet;
#X obj 511 365 bing 50 50 100;
#X obj 405 365 balance;
#X obj 556 59 bng 15 250 50 0 empty empty empty 17 7 0 10 -262144 -1
-1;
#X obj 558 33 inlet;
#X obj 558 87 t b b b;
#X obj 433 87 t b b b b b;
#X obj 394 331 fade 1000;
#X obj 597 141 del 1000;
#X obj 352 132 swappy;
#X obj 470 333 varia 20;
#X obj 320 168 limiteur;
#X obj 365 445 throw~ swappy-g;
#X obj 496 444 throw~ swappy-d;
#X obj 329 268 *~ 0.75;
#X connect 0 0 11 0;
#X connect 1 0 18 0;
#X connect 2 0 17 0;
#X connect 4 0 3 0;
#X connect 5 0 0 0;
#X connect 6 0 1 1;
#X connect 6 0 2 1;
#X connect 7 0 2 0;
#X connect 7 1 1 0;
#X connect 8 0 10 0;
#X connect 9 0 8 0;
#X connect 10 0 13 0;
#X connect 10 1 15 0;
#X connect 10 2 12 2;
#X connect 11 0 14 0;
#X connect 11 1 12 1;
#X connect 11 2 15 0;
#X connect 11 3 6 0;
#X connect 11 4 4 0;
#X connect 12 0 7 0;
#X connect 13 0 4 0;
#X connect 14 0 16 0;
#X connect 15 0 7 1;
#X connect 16 0 19 0;
#X connect 19 0 12 0;
