#N canvas 0 25 1274 694 10;
#X obj 367 589 dac~;
#X obj 309 62 bng 15 250 50 0 empty empty empty 17 7 0 10 -262144 -1
-1;
#X obj 419 522 *~;
#X obj 324 502 *~;
#X obj 668 262 switch~;
#X obj 585 237 tgl 15 0 empty empty empty 17 7 0 10 -262144 -1 -1 0
1;
#X obj 311 36 inlet;
#X obj 466 459 bing 50 50 100;
#X obj 347 444 balance;
#X obj 548 68 bng 15 250 50 0 empty empty empty 17 7 0 10 -262144 -1
-1;
#X obj 550 42 inlet;
#X obj 544 126 t b b b;
#X obj 293 399 fade 1000;
#X obj 604 170 del 1000;
#X obj 403 406 varia 20;
#X obj 277 297 *~ 30;
#X obj 274 261 shortping;
#X obj 216 201 random 150;
#X obj 198 153 random_metro;
#X obj 284 197 random 150;
#X obj 367 129 t b b b b b;
#X obj 276 358 limiteur;
#X connect 1 0 20 0;
#X connect 2 0 0 1;
#X connect 3 0 0 0;
#X connect 5 0 4 0;
#X connect 6 0 1 0;
#X connect 7 0 2 1;
#X connect 7 0 3 1;
#X connect 8 0 3 0;
#X connect 8 1 2 0;
#X connect 9 0 11 0;
#X connect 10 0 9 0;
#X connect 11 0 13 0;
#X connect 11 1 14 0;
#X connect 11 2 12 2;
#X connect 12 0 8 0;
#X connect 13 0 5 0;
#X connect 14 0 8 1;
#X connect 15 0 21 0;
#X connect 16 0 15 0;
#X connect 17 0 16 1;
#X connect 18 0 17 0;
#X connect 18 0 19 0;
#X connect 18 0 16 0;
#X connect 19 0 16 2;
#X connect 20 0 12 1;
#X connect 20 1 18 0;
#X connect 20 2 14 0;
#X connect 20 3 7 0;
#X connect 20 4 5 0;
#X connect 21 0 12 0;
