#N canvas 0 25 1274 694 10;
#X obj 309 62 bng 15 250 50 0 empty empty empty 17 7 0 10 -262144 -1
-1;
#X obj 437 441 *~;
#X obj 342 421 *~;
#X obj 669 277 switch~;
#X obj 586 252 tgl 15 0 empty empty empty 17 7 0 10 -262144 -1 -1 0
1;
#X obj 311 36 inlet;
#X obj 484 378 bing 50 50 100;
#X obj 365 363 balance;
#X obj 548 68 bng 15 250 50 0 empty empty empty 17 7 0 10 -262144 -1
-1;
#X obj 550 42 inlet;
#X obj 544 126 t b b b;
#X obj 311 318 fade 1000;
#X obj 605 185 del 1000;
#X obj 421 325 varia 20;
#X obj 262 227 jitter_engine;
#X obj 254 197 bing 100 0 100;
#X obj 367 129 t b b b b b;
#X obj 261 275 limiteur;
#X obj 385 508 throw~ jitter-g;
#X obj 530 511 throw~ jitter-d;
#X connect 0 0 16 0;
#X connect 1 0 19 0;
#X connect 2 0 18 0;
#X connect 4 0 3 0;
#X connect 5 0 0 0;
#X connect 6 0 1 1;
#X connect 6 0 2 1;
#X connect 7 0 2 0;
#X connect 7 1 1 0;
#X connect 8 0 10 0;
#X connect 9 0 8 0;
#X connect 10 0 12 0;
#X connect 10 1 13 0;
#X connect 10 2 11 2;
#X connect 11 0 7 0;
#X connect 12 0 4 0;
#X connect 13 0 7 1;
#X connect 14 0 17 0;
#X connect 15 0 14 0;
#X connect 16 0 11 1;
#X connect 16 1 15 0;
#X connect 16 2 13 0;
#X connect 16 3 6 0;
#X connect 16 4 4 0;
#X connect 17 0 11 0;
