#N canvas 0 25 1274 694 10;
#X obj 309 62 bng 15 250 50 0 empty empty empty 17 7 0 10 -262144 -1
-1;
#X obj 401 471 *~;
#X obj 306 451 *~;
#X obj 673 293 switch~;
#X obj 590 268 tgl 15 0 empty empty empty 17 7 0 10 -262144 -1 -1 0
1;
#X obj 311 36 inlet;
#X obj 448 408 bing 50 50 100;
#X obj 329 393 balance;
#X obj 548 68 bng 15 250 50 0 empty empty empty 17 7 0 10 -262144 -1
-1;
#X obj 550 42 inlet;
#X obj 544 126 t b b b;
#X obj 275 348 fade 1000;
#X obj 609 201 del 1000;
#X obj 231 233 old-record;
#X obj 367 127 t b b b b b b;
#X obj 210 169 random 127;
#X obj 291 193 random 4000;
#X obj 385 355 varia 200;
#X obj 240 290 limiteur;
#X obj 350 537 throw~ old-record-g;
#X obj 486 538 throw~ old-record-d;
#X connect 0 0 14 0;
#X connect 1 0 20 0;
#X connect 2 0 19 0;
#X connect 4 0 3 0;
#X connect 5 0 0 0;
#X connect 6 0 1 1;
#X connect 6 0 2 1;
#X connect 7 0 2 0;
#X connect 7 1 1 0;
#X connect 8 0 10 0;
#X connect 9 0 8 0;
#X connect 10 0 12 0;
#X connect 10 1 17 0;
#X connect 10 2 11 2;
#X connect 11 0 7 0;
#X connect 12 0 4 0;
#X connect 13 0 18 0;
#X connect 14 0 11 1;
#X connect 14 1 15 0;
#X connect 14 2 16 0;
#X connect 14 3 17 0;
#X connect 14 4 6 0;
#X connect 14 5 4 0;
#X connect 15 0 13 0;
#X connect 16 0 13 1;
#X connect 17 0 7 1;
#X connect 18 0 11 0;
