#N canvas 0 25 1274 694 10;
#X obj 309 62 bng 15 250 50 0 empty empty empty 17 7 0 10 -262144 -1
-1;
#X obj 502 538 *~;
#X obj 407 518 *~;
#X obj 665 280 switch~;
#X obj 582 255 tgl 15 0 empty empty empty 17 7 0 10 -262144 -1 -1 1
1;
#X obj 311 36 inlet;
#X obj 545 498 bing 50 50 100;
#X obj 426 483 balance;
#X obj 548 68 bng 15 250 50 0 empty empty empty 17 7 0 10 -262144 -1
-1;
#X obj 550 42 inlet;
#X obj 544 126 t b b b;
#X obj 372 438 fade 1000;
#X obj 601 188 del 1000;
#X obj 249 283 startrek;
#X obj 367 129 t b b b b b b b;
#X obj 203 176 bing 50 50 1;
#X obj 239 209 bing 100 0 100;
#X obj 282 236 bing 100 0 1;
#X obj 482 445 varia 20;
#X obj 247 319 limiteur;
#X obj 377 568 throw~ startreck-g;
#X obj 498 569 throw~ startreck-d;
#X obj 282 366 *~ 0.75;
#X connect 0 0 14 0;
#X connect 1 0 21 0;
#X connect 2 0 20 0;
#X connect 4 0 3 0;
#X connect 5 0 0 0;
#X connect 6 0 1 1;
#X connect 6 0 2 1;
#X connect 7 0 2 0;
#X connect 7 1 1 0;
#X connect 8 0 10 0;
#X connect 9 0 8 0;
#X connect 10 0 12 0;
#X connect 10 1 18 0;
#X connect 10 2 11 2;
#X connect 11 0 7 0;
#X connect 12 0 4 0;
#X connect 13 0 19 0;
#X connect 14 0 11 1;
#X connect 14 1 15 0;
#X connect 14 2 16 0;
#X connect 14 3 17 0;
#X connect 14 4 6 0;
#X connect 14 5 18 0;
#X connect 14 6 4 0;
#X connect 15 0 13 0;
#X connect 16 0 13 1;
#X connect 17 0 13 2;
#X connect 18 0 7 1;
#X connect 19 0 22 0;
#X connect 22 0 11 0;
