#N canvas 0 25 1274 694 10;
#X obj 309 62 bng 15 250 50 0 empty empty empty 17 7 0 10 -262144 -1
-1;
#X obj 477 546 *~;
#X obj 382 526 *~;
#X obj 686 291 switch~;
#X obj 598 236 tgl 15 0 empty empty empty 17 7 0 10 -262144 -1 -1 0
1;
#X obj 311 36 inlet;
#X obj 524 483 bing 50 50 100;
#X obj 405 468 balance;
#X obj 548 68 bng 15 250 50 0 empty empty empty 17 7 0 10 -262144 -1
-1;
#X obj 550 42 inlet;
#X obj 544 126 t b b b;
#X obj 351 423 fade 1000;
#X obj 622 199 del 1000;
#X obj 227 284 random 150;
#X obj 209 236 random_metro;
#X obj 220 339 switchclick;
#X obj 295 280 random 8000;
#X obj 364 162 t b b b b b;
#X obj 461 430 varia 200;
#X obj 257 387 limiteur;
#X obj 316 612 throw~ switch-g;
#X obj 471 619 throw~ switch-d;
#X connect 0 0 17 0;
#X connect 1 0 21 0;
#X connect 2 0 20 0;
#X connect 4 0 3 0;
#X connect 5 0 0 0;
#X connect 6 0 1 1;
#X connect 6 0 2 1;
#X connect 7 0 2 0;
#X connect 7 1 1 0;
#X connect 8 0 10 0;
#X connect 9 0 8 0;
#X connect 10 0 12 0;
#X connect 10 1 18 0;
#X connect 10 2 11 2;
#X connect 11 0 7 0;
#X connect 12 0 4 0;
#X connect 13 0 15 0;
#X connect 14 0 13 0;
#X connect 14 0 16 0;
#X connect 15 0 19 0;
#X connect 16 0 15 1;
#X connect 17 0 11 1;
#X connect 17 1 14 0;
#X connect 17 2 18 0;
#X connect 17 3 6 0;
#X connect 17 4 4 0;
#X connect 18 0 7 1;
#X connect 19 0 11 0;
