#N canvas 0 25 1274 694 10;
#X obj 309 62 bng 15 250 50 0 empty empty empty 17 7 0 10 -262144 -1
-1;
#X obj 478 606 *~;
#X obj 383 586 *~;
#X obj 688 378 switch~;
#X obj 605 353 tgl 15 0 empty empty empty 17 7 0 10 -262144 -1 -1 1
1;
#X obj 311 36 inlet;
#X obj 525 543 bing 50 50 100;
#X obj 406 528 balance;
#X obj 548 68 bng 15 250 50 0 empty empty empty 17 7 0 10 -262144 -1
-1;
#X obj 550 42 inlet;
#X obj 544 126 t b b b;
#X obj 352 483 fade 1000;
#X obj 624 286 del 1000;
#X obj 293 375 vowels2;
#X obj 367 129 t b b b b b;
#X obj 278 427 limiteur;
#X obj 426 673 throw~ vowels2-g;
#X obj 532 669 throw~ vowels2-d;
#X obj 462 490 varia 20;
#X connect 0 0 14 0;
#X connect 1 0 17 0;
#X connect 2 0 16 0;
#X connect 4 0 3 0;
#X connect 5 0 0 0;
#X connect 6 0 1 1;
#X connect 6 0 2 1;
#X connect 7 0 2 0;
#X connect 7 1 1 0;
#X connect 8 0 10 0;
#X connect 9 0 8 0;
#X connect 10 0 12 0;
#X connect 10 1 18 0;
#X connect 10 2 11 2;
#X connect 11 0 7 0;
#X connect 12 0 4 0;
#X connect 13 0 15 0;
#X connect 14 0 11 1;
#X connect 14 1 13 0;
#X connect 14 2 18 0;
#X connect 14 3 6 0;
#X connect 14 4 4 0;
#X connect 15 0 11 0;
#X connect 18 0 7 1;
