#N canvas 0 25 1274 694 10;
#X obj 399 162 bng 15 250 50 0 empty empty empty 17 7 0 10 -262144
-1 -1;
#X obj 413 478 *~;
#X obj 318 458 *~;
#X obj 629 336 switch~;
#X obj 546 311 tgl 15 0 empty empty empty 17 7 0 10 -262144 -1 -1 0
1;
#X obj 401 136 inlet;
#X obj 470 380 bing 50 50 100;
#X obj 340 411 balance;
#X obj 524 162 bng 15 250 50 0 empty empty empty 17 7 0 10 -262144
-1 -1;
#X obj 526 136 inlet;
#X obj 526 190 t b b b;
#X obj 321 373 fade 1000;
#X obj 565 244 del 1000;
#X obj 395 382 varia 20;
#X obj 295 278 cricket;
#X obj 229 232 bing 5 7 1;
#X obj 401 190 t b b b b b b;
#X obj 312 236 bing 2000 1000 1;
#X obj 290 332 limiteur;
#X obj 361 545 throw~ cricket-g;
#X obj 496 547 throw~ cricket-d;
#X connect 0 0 16 0;
#X connect 1 0 20 0;
#X connect 2 0 19 0;
#X connect 4 0 3 0;
#X connect 5 0 0 0;
#X connect 6 0 1 1;
#X connect 6 0 2 1;
#X connect 7 0 2 0;
#X connect 7 1 1 0;
#X connect 8 0 10 0;
#X connect 9 0 8 0;
#X connect 10 0 12 0;
#X connect 10 1 13 0;
#X connect 10 2 11 2;
#X connect 11 0 7 0;
#X connect 12 0 4 0;
#X connect 13 0 7 1;
#X connect 14 0 18 0;
#X connect 15 0 14 0;
#X connect 16 0 15 0;
#X connect 16 1 17 0;
#X connect 16 2 11 1;
#X connect 16 3 13 0;
#X connect 16 4 6 0;
#X connect 16 5 4 0;
#X connect 17 0 14 1;
#X connect 18 0 11 0;
