#N canvas 0 25 1274 666 10;
#X obj 100 39 tgl 15 0 empty empty empty 17 7 0 10 -262144 -1 -1 0
1;
#X obj 100 9 inlet;
#X obj 278 217 bng 15 250 50 0 empty empty empty 17 7 0 10 -262144
-1 -1;
#X obj 98 235 varia 200;
#X obj 100 67 s sinusoide-bang;
#X obj 278 184 r sinusoide-bang;
#X obj 278 319 s sinusoide-1-\$1;
#X obj 229 134 s sinusoide-mini-1-\$1;
#X obj 461 322 s sinusoide-2-\$1;
#X obj 425 131 s sinusoide-mini-2-\$1;
#X obj 642 324 s sinusoide-3-\$1;
#X obj 602 133 s sinusoide-mini-3-\$1;
#X obj 278 281 + 100;
#X obj 461 219 bng 15 250 50 0 empty empty empty 17 7 0 10 -262144
-1 -1;
#X obj 461 186 r sinusoide-bang;
#X obj 461 283 + 100;
#X obj 642 220 bng 15 250 50 0 empty empty empty 17 7 0 10 -262144
-1 -1;
#X obj 642 187 r sinusoide-bang;
#X obj 642 284 + 100;
#X obj 95 177 r sinusoide-bang;
#X obj 98 317 s sinusoide-vol-\$1;
#X obj 229 47 bng 15 250 50 0 empty empty empty 17 7 0 10 -262144 -1
-1;
#X obj 229 19 r sinusoide-bang;
#X obj 229 73 random 100;
#X obj 229 101 / 100;
#X obj 425 37 bng 15 250 50 0 empty empty empty 17 7 0 10 -262144 -1
-1;
#X obj 425 6 r sinusoide-bang;
#X obj 425 62 random 100;
#X obj 425 94 / 100;
#X obj 602 36 bng 15 250 50 0 empty empty empty 17 7 0 10 -262144 -1
-1;
#X obj 602 11 r sinusoide-bang;
#X obj 602 62 random 100;
#X obj 602 94 / 100;
#X obj 275 365 r sinusoide-bang;
#X obj 275 391 bng 15 250 50 0 empty empty empty 17 7 0 10 -262144
-1 -1;
#X obj 275 484 s sinusoide-stereoexpand-rolloff-\$1;
#X obj 519 366 r sinusoide-bang;
#X obj 519 392 bng 15 250 50 0 empty empty empty 17 7 0 10 -262144
-1 -1;
#X obj 519 485 s sinusoide-stereoexpand-width-\$1;
#X obj 278 249 random 500;
#X obj 461 251 random 500;
#X obj 642 252 random 500;
#X obj 107 424 varia 200;
#X obj 104 366 r sinusoide-bang;
#X obj 107 506 s sinusoide-bal-\$1;
#X obj 275 419 bing 100 0 100;
#X obj 519 420 bing 100 0 100;
#X connect 0 0 4 0;
#X connect 1 0 0 0;
#X connect 2 0 39 0;
#X connect 3 0 20 0;
#X connect 5 0 2 0;
#X connect 12 0 6 0;
#X connect 13 0 40 0;
#X connect 14 0 13 0;
#X connect 15 0 8 0;
#X connect 16 0 41 0;
#X connect 17 0 16 0;
#X connect 18 0 10 0;
#X connect 19 0 3 0;
#X connect 21 0 23 0;
#X connect 22 0 21 0;
#X connect 23 0 24 0;
#X connect 24 0 7 0;
#X connect 25 0 27 0;
#X connect 26 0 25 0;
#X connect 27 0 28 0;
#X connect 28 0 9 0;
#X connect 29 0 31 0;
#X connect 30 0 29 0;
#X connect 31 0 32 0;
#X connect 32 0 11 0;
#X connect 33 0 34 0;
#X connect 34 0 45 0;
#X connect 36 0 37 0;
#X connect 37 0 46 0;
#X connect 39 0 12 0;
#X connect 40 0 15 0;
#X connect 41 0 18 0;
#X connect 42 0 44 0;
#X connect 43 0 42 0;
#X connect 45 0 35 0;
#X connect 46 0 38 0;
