#N canvas 0 25 1274 694 10;
#X obj 309 62 bng 15 250 50 0 empty empty empty 17 7 0 10 -262144 -1
-1;
#X obj 457 592 *~;
#X obj 383 586 *~;
#X obj 688 378 switch~;
#X obj 605 353 tgl 15 0 empty empty empty 17 7 0 10 -262144 -1 -1 0
1;
#X obj 311 36 inlet;
#X obj 525 543 bing 50 50 100;
#X obj 548 68 bng 15 250 50 0 empty empty empty 17 7 0 10 -262144 -1
-1;
#X obj 550 42 inlet;
#X obj 352 483 fade 1000;
#X obj 624 286 del 1000;
#X obj 346 427 limiteur;
#X obj 204 325 bubbles~;
#X obj 280 487 fade 1000;
#X obj 274 431 limiteur;
#X obj 550 115 t b b;
#X obj 378 127 t b b b;
#X obj 362 639 throw~ bubbles-g;
#X obj 474 638 throw~ bubbles-d;
#X connect 0 0 16 0;
#X connect 1 0 18 0;
#X connect 2 0 17 0;
#X connect 4 0 3 0;
#X connect 5 0 0 0;
#X connect 6 0 1 1;
#X connect 6 0 2 1;
#X connect 7 0 15 0;
#X connect 8 0 7 0;
#X connect 9 0 1 0;
#X connect 10 0 4 0;
#X connect 11 0 9 0;
#X connect 12 0 14 0;
#X connect 12 1 11 0;
#X connect 13 0 2 0;
#X connect 14 0 13 0;
#X connect 15 0 10 0;
#X connect 15 1 9 2;
#X connect 15 1 13 2;
#X connect 16 0 9 1;
#X connect 16 0 13 1;
#X connect 16 1 6 0;
#X connect 16 2 4 0;
