#N canvas 0 25 1274 694 10;
#X obj 309 62 bng 15 250 50 0 empty empty empty 17 7 0 10 -262144 -1
-1;
#X obj 430 508 *~;
#X obj 335 488 *~;
#X obj 657 269 switch~;
#X obj 574 244 tgl 15 0 empty empty empty 17 7 0 10 -262144 -1 -1 0
1;
#X obj 311 36 inlet;
#X obj 477 445 bing 50 50 100;
#X obj 358 430 balance;
#X obj 548 68 bng 15 250 50 0 empty empty empty 17 7 0 10 -262144 -1
-1;
#X obj 550 42 inlet;
#X obj 544 126 t b b b;
#X obj 304 385 fade 1000;
#X obj 593 177 del 1000;
#X obj 225 255 S_Factory_Gen_Noise_Drips;
#X obj 367 129 t b b b b b;
#X obj 237 182 varia 100 100;
#X obj 237 213 * 2000;
#X obj 247 292 *~ 15;
#X obj 414 392 varia 200;
#X obj 277 330 limiteur;
#X obj 378 575 throw~ Drips-g;
#X obj 499 582 throw~ Drips-d;
#X connect 0 0 14 0;
#X connect 1 0 21 0;
#X connect 2 0 20 0;
#X connect 4 0 3 0;
#X connect 5 0 0 0;
#X connect 6 0 1 1;
#X connect 6 0 2 1;
#X connect 7 0 2 0;
#X connect 7 1 1 0;
#X connect 8 0 10 0;
#X connect 9 0 8 0;
#X connect 10 0 12 0;
#X connect 10 1 18 0;
#X connect 10 2 11 2;
#X connect 11 0 7 0;
#X connect 12 0 4 0;
#X connect 12 0 15 0;
#X connect 13 0 17 0;
#X connect 14 0 11 1;
#X connect 14 1 15 0;
#X connect 14 2 18 0;
#X connect 14 3 6 0;
#X connect 14 4 4 0;
#X connect 15 0 16 0;
#X connect 16 0 13 0;
#X connect 17 0 19 0;
#X connect 18 0 7 1;
#X connect 19 0 11 0;
