#N canvas 0 25 1274 694 12;
#X obj 519 219 +~;
#X obj 561 219 +~;
#X obj 518 291 +~;
#X obj 627 292 +~;
#X obj 560 291 -~;
#X obj 667 291 -~;
#X obj 517 347 +~;
#X obj 561 348 +~;
#X obj 605 349 -~;
#X obj 644 349 -~;
#X obj 604 401 *~ 0;
#X obj 562 400 *~ 0;
#X obj 517 399 *~ 0;
#X obj 645 402 *~ 0;
#X obj 575 157 delread~ \$0-loop-del1 60;
#X obj 617 182 delread~ \$0-loop-del2 71.9345;
#X obj 628 212 delread~ \$0-loop-del3 86.7545;
#X obj 650 237 delread~ \$0-loop-del4 95.945;
#X obj 644 430 delwrite~ \$0-loop-del4 95.945;
#X obj 605 453 delwrite~ \$0-loop-del3 86.7545;
#X obj 563 476 delwrite~ \$0-loop-del2 71.9345;
#X obj 518 498 delwrite~ \$0-loop-del1 60;
#X obj 700 347 * 0.5;
#X obj 700 319 r \$0-fromlength;
#X obj 439 562 *~;
#X obj 406 583 +~;
#X obj 519 527 r \$0-frommix;
#X obj 253 60 +~;
#X obj 289 60 -~;
#X obj 253 144 +~;
#X obj 289 144 -~;
#X obj 254 222 +~;
#X obj 290 222 -~;
#X obj 253 304 +~;
#X obj 289 304 -~;
#X obj 290 84 delwrite~ \$0-d1 5.43216;
#X obj 290 109 delread~ \$0-d1 5.43216;
#X obj 290 168 delwrite~ \$0-d2 8.45346;
#X obj 289 194 delread~ \$0-d2 8.45346;
#X obj 291 246 delwrite~ \$0-d3 13.4367;
#X obj 290 272 delread~ \$0-d3 13.4367;
#X obj 290 328 delwrite~ \$0-d4 21.5463;
#X obj 289 354 delread~ \$0-d4 21.5463;
#X obj 254 385 +~;
#X obj 290 385 -~;
#X obj 254 464 +~;
#X obj 290 464 -~;
#X obj 291 409 delwrite~ \$0-d5 34.3876;
#X obj 290 435 delread~ \$0-d5 34.3876;
#X obj 291 488 delwrite~ \$0-d6 55.5437;
#X obj 289 514 delread~ \$0-d6 55.5437;
#X obj 483 563 *~;
#X obj 462 589 +~;
#X obj 336 643 throw~ gauche;
#X obj 458 643 throw~ droite;
#X obj 335 612 limiteur;
#X obj 459 617 limiteur;
#X obj 88 43 vsl 15 64 0 1 0 0 \$0-frommix empty mix 0 -9 0 10 -258113
-1 -1 0 1;
#X obj 31 43 vsl 15 64 0 1 0 0 \$0-fromlength empty length 0 -9 0 10
-258113 -1 -1 0 1;
#X obj 231 6 catch~ reverb-g;
#X obj 341 11 catch~ reverb-d;
#X connect 0 0 2 0;
#X connect 0 0 4 0;
#X connect 0 0 24 0;
#X connect 1 0 2 1;
#X connect 1 0 4 1;
#X connect 1 0 51 0;
#X connect 2 0 6 0;
#X connect 2 0 8 0;
#X connect 3 0 8 1;
#X connect 3 0 6 1;
#X connect 4 0 7 0;
#X connect 4 0 9 0;
#X connect 5 0 7 1;
#X connect 5 0 9 1;
#X connect 6 0 12 0;
#X connect 7 0 11 0;
#X connect 8 0 10 0;
#X connect 9 0 13 0;
#X connect 10 0 19 0;
#X connect 11 0 20 0;
#X connect 12 0 21 0;
#X connect 13 0 18 0;
#X connect 14 0 0 1;
#X connect 15 0 1 1;
#X connect 16 0 3 0;
#X connect 16 0 5 0;
#X connect 17 0 3 1;
#X connect 17 0 5 1;
#X connect 22 0 12 1;
#X connect 22 0 11 1;
#X connect 22 0 10 1;
#X connect 22 0 13 1;
#X connect 23 0 22 0;
#X connect 24 0 25 1;
#X connect 25 0 55 0;
#X connect 26 0 24 1;
#X connect 26 0 51 1;
#X connect 27 0 29 0;
#X connect 27 0 30 0;
#X connect 28 0 35 0;
#X connect 29 0 31 0;
#X connect 29 0 32 0;
#X connect 30 0 37 0;
#X connect 31 0 33 0;
#X connect 31 0 34 0;
#X connect 32 0 39 0;
#X connect 33 0 43 0;
#X connect 33 0 44 0;
#X connect 34 0 41 0;
#X connect 36 0 29 1;
#X connect 36 0 30 1;
#X connect 38 0 31 1;
#X connect 38 0 32 1;
#X connect 40 0 33 1;
#X connect 40 0 34 1;
#X connect 42 0 43 1;
#X connect 42 0 44 1;
#X connect 43 0 45 0;
#X connect 43 0 46 0;
#X connect 44 0 47 0;
#X connect 45 0 0 0;
#X connect 46 0 49 0;
#X connect 48 0 45 1;
#X connect 48 0 46 1;
#X connect 50 0 1 0;
#X connect 51 0 52 1;
#X connect 52 0 56 0;
#X connect 55 0 53 0;
#X connect 56 0 54 0;
#X connect 59 0 27 0;
#X connect 59 0 28 0;
#X connect 59 0 25 0;
#X connect 60 0 27 1;
#X connect 60 0 28 1;
#X connect 60 0 52 0;
#X coords 0 -1 1 1 100 100 2 20 20;
