#N canvas 0 25 1274 694 10;
#N canvas 0 25 1280 696 Drips 0;
#X obj 257 79 noise~;
#X obj 143 79 noise~;
#X obj 371 78 noise~;
#X obj 155 112 lop~ 16;
#X obj 519 215 /~;
#X obj 518 322 clip~ 0 0.9;
#X obj 518 522 lop~ 12000;
#X obj 271 105 lop~ 0.01;
#X obj 518 240 hip~ 10000;
#X obj 449 107 lop~ 1900;
#X obj 519 301 *~;
#X obj 520 276 *~ 0.03;
#X obj 518 433 vcf~ 3333 30;
#X obj 557 365 +~ 1000;
#X obj 156 138 *~ 300000;
#X obj 556 401 clip~ 1000 10000;
#X obj 609 433 init 20;
#X obj 515 460 *~ 0.7;
#X text 514 485 drips;
#X obj 780 332 inlet;
#X obj 567 636 outlet~;
#X connect 0 0 7 0;
#X connect 1 0 3 0;
#X connect 2 0 9 0;
#X connect 3 0 14 0;
#X connect 4 0 8 0;
#X connect 5 0 12 0;
#X connect 6 0 20 0;
#X connect 7 0 4 0;
#X connect 8 0 11 0;
#X connect 9 0 4 1;
#X connect 10 0 5 0;
#X connect 11 0 10 0;
#X connect 11 0 10 1;
#X connect 12 0 17 0;
#X connect 13 0 15 0;
#X connect 14 0 13 0;
#X connect 15 0 12 1;
#X connect 16 0 12 2;
#X connect 17 0 6 0;
#X connect 19 0 6 1;
#X restore 473 239 pd Drips;
#X obj 473 181 inlet;
#X obj 475 310 outlet~;
#X obj 474 277 *~ 10;
#X connect 0 0 3 0;
#X connect 1 0 0 0;
#X connect 3 0 2 0;
