#N canvas 0 25 1274 694 10;
#X obj 348 256 +~;
#X obj 300 215 vline~;
#X obj 300 237 *~;
#X obj 300 260 *~;
#X obj 300 284 *~;
#X msg 238 161 1 0 0 \, 0 50 0;
#X obj 349 215 osc~ \$1;
#X obj 363 235 osc~ \$2;
#X obj 238 140 inlet;
#X obj 392 148 inlet;
#X obj 483 161 inlet;
#X obj 300 355 outlet~;
#X connect 0 0 4 1;
#X connect 1 0 2 0;
#X connect 1 0 2 1;
#X connect 2 0 3 0;
#X connect 2 0 3 1;
#X connect 3 0 4 0;
#X connect 4 0 11 0;
#X connect 5 0 1 0;
#X connect 6 0 0 0;
#X connect 7 0 0 1;
#X connect 8 0 5 0;
#X connect 9 0 6 0;
#X connect 10 0 7 0;
