#N canvas 0 25 1274 666 10;
#X obj 306 191 +~;
#X obj 490 186 +~;
#X obj 490 133 osc~ 440;
#X obj 306 138 osc~ 330;
#X obj 327 162 osc~ 330.2;
#X obj 511 156 osc~ 440.33;
#X obj 683 184 +~;
#X obj 684 134 osc~ 587;
#X obj 705 157 osc~ 587.25;
#X obj 313 289 +~;
#X obj 313 34 r sinusoide-1-\$1;
#X obj 494 36 r sinusoide-2-\$1;
#X obj 676 38 r sinusoide-3-\$1;
#X obj 328 70 r sinusoide-mini-1-\$1;
#X obj 521 67 r sinusoide-mini-2-\$1;
#X obj 701 69 r sinusoide-mini-3-\$1;
#X obj 322 104 +;
#X obj 515 102 +;
#X obj 700 101 +;
#X obj 323 369 *~;
#X obj 836 207 vsl 15 128 0 2 0 0 empty empty empty 0 -9 0 10 -262144
-1 -1 0 1;
#X obj 356 597 outlet~;
#X obj 836 168 r sinusoide-vol-\$1;
#X obj 293 520 stereoexpand;
#X obj 425 343 vsl 15 128 0 1 0 0 empty empty empty 0 -9 0 10 -262144
-1 -1 0 1;
#X obj 472 388 vsl 15 128 0 1 0 0 empty empty empty 0 -9 0 10 -262144
-1 -1 0 1;
#X obj 426 315 r sinusoide-stereoexpand-rolloff-\$1;
#X obj 488 360 r sinusoide-stereoexpand-width-\$1;
#X obj 274 596 outlet~;
#X obj 498 270 *~ 0.3;
#X obj 360 254 *~ 0.3;
#X obj 292 246 *~ 0.3;
#X connect 0 0 31 0;
#X connect 1 0 30 0;
#X connect 2 0 1 0;
#X connect 3 0 0 0;
#X connect 4 0 0 1;
#X connect 5 0 1 1;
#X connect 6 0 29 0;
#X connect 7 0 6 0;
#X connect 8 0 6 1;
#X connect 9 0 19 0;
#X connect 10 0 3 0;
#X connect 10 0 16 0;
#X connect 11 0 2 0;
#X connect 11 0 17 0;
#X connect 12 0 7 0;
#X connect 12 0 18 0;
#X connect 13 0 16 1;
#X connect 14 0 17 1;
#X connect 15 0 18 1;
#X connect 16 0 4 0;
#X connect 17 0 5 0;
#X connect 18 0 8 0;
#X connect 19 0 23 0;
#X connect 19 0 23 1;
#X connect 20 0 19 1;
#X connect 22 0 20 0;
#X connect 23 0 28 0;
#X connect 23 1 21 0;
#X connect 24 0 23 2;
#X connect 25 0 23 3;
#X connect 26 0 24 0;
#X connect 27 0 25 0;
#X connect 29 0 19 0;
#X connect 30 0 9 1;
#X connect 31 0 9 0;
