#N canvas 0 68 1274 694 10;
#X obj 359 86 t f f f f f f;
#X obj 594 276 t f f f f f f;
#X obj 250 242 mtof;
#X obj 312 238 mtof;
#X obj 358 237 mtof;
#X obj 407 235 mtof;
#X obj 378 292 r~ input;
#X obj 911 174 s~ input;
#X obj 915 62 noise~;
#X obj 254 449 *~ 1;
#X obj 310 449 *~ 1;
#X obj 370 447 *~ 1;
#X obj 438 448 *~ 1;
#X obj 455 237 mtof;
#X obj 503 237 mtof;
#X obj 184 373 bp~ 200 10;
#X obj 284 371 bp~ 400 10;
#X obj 375 370 bp~ 800 10;
#X obj 470 369 bp~ 1600 10;
#X obj 561 370 bp~ 3200 10;
#X obj 511 446 *~ 1;
#X obj 579 447 *~ 1;
#X obj 95 373 bp~ 100 10;
#X obj 478 96 * 2;
#X obj 505 95 * 4;
#X obj 358 216 +;
#X obj 312 216 +;
#X obj 407 213 +;
#X obj 456 214 +;
#X obj 503 214 +;
#X obj 312 189 t b f;
#X obj 530 96 * 6;
#X obj 557 95 * 8;
#X obj 585 95 * 10;
#X obj 358 189 t b f;
#X obj 407 186 t b f;
#X obj 455 188 t b f;
#X obj 506 189 t b f;
#X obj 397 581 outlet~;
#X obj 492 589 outlet~;
#X obj 347 19 inlet;
#X obj 484 18 inlet;
#X obj 501 60 f;
#X obj 627 33 inlet;
#X obj 336 537 *~ 0.8;
#X obj 479 542 *~ 0.8;
#X connect 0 0 2 0;
#X connect 0 1 26 0;
#X connect 0 2 25 0;
#X connect 0 3 27 0;
#X connect 0 4 28 0;
#X connect 0 5 29 0;
#X connect 1 0 22 2;
#X connect 1 1 15 2;
#X connect 1 2 16 2;
#X connect 1 3 17 2;
#X connect 1 4 18 2;
#X connect 1 5 19 2;
#X connect 2 0 22 1;
#X connect 3 0 15 1;
#X connect 4 0 16 1;
#X connect 5 0 17 1;
#X connect 6 0 15 0;
#X connect 6 0 16 0;
#X connect 6 0 17 0;
#X connect 6 0 18 0;
#X connect 6 0 19 0;
#X connect 6 0 22 0;
#X connect 8 0 7 0;
#X connect 9 0 44 0;
#X connect 10 0 44 0;
#X connect 11 0 44 0;
#X connect 12 0 45 0;
#X connect 13 0 18 1;
#X connect 14 0 19 1;
#X connect 15 0 10 0;
#X connect 16 0 11 0;
#X connect 17 0 12 0;
#X connect 18 0 20 0;
#X connect 19 0 21 0;
#X connect 20 0 45 0;
#X connect 21 0 45 0;
#X connect 22 0 9 0;
#X connect 23 0 30 0;
#X connect 24 0 34 0;
#X connect 25 0 4 0;
#X connect 26 0 3 0;
#X connect 27 0 5 0;
#X connect 28 0 13 0;
#X connect 29 0 14 0;
#X connect 30 0 26 0;
#X connect 30 1 26 1;
#X connect 31 0 35 0;
#X connect 32 0 36 0;
#X connect 33 0 37 0;
#X connect 34 0 25 0;
#X connect 34 1 25 1;
#X connect 35 0 27 0;
#X connect 35 1 27 1;
#X connect 36 0 28 0;
#X connect 36 1 28 1;
#X connect 37 0 29 0;
#X connect 37 1 29 1;
#X connect 40 0 0 0;
#X connect 41 0 42 0;
#X connect 42 0 33 0;
#X connect 42 0 32 0;
#X connect 42 0 31 0;
#X connect 42 0 24 0;
#X connect 42 0 23 0;
#X connect 43 0 1 0;
#X connect 44 0 38 0;
#X connect 45 0 39 0;
