#N canvas 0 0 907 662 10;
#X obj 235 590 outlet~;
#X obj 198 257 lop~ 500;
#X obj 257 256 hip~ 500;
#X obj 118 256 lop~ 500;
#X obj 57 256 hip~ 500;
#X msg 279 195 \$1 20;
#X obj 278 215 line 0 2;
#X obj 279 152 + 30;
#X obj 278 127 * 60;
#X obj 287 296 delwrite~ \$0-del 50;
#X obj 426 254 + 1;
#X obj 426 211 expr pow($f1 \, 2);
#X obj 426 233 * 45;
#X obj 424 294 line~;
#X msg 427 275 \$1 20;
#X obj 425 337 vd~ \$0-del;
#X obj 57 142 inlet~;
#X obj 151 587 outlet~;
#X obj 135 140 inlet~;
#X obj 279 173 mtof;
#X obj 275 87 inlet rolloff;
#X obj 423 132 inlet width;
#X connect 1 0 0 0;
#X connect 2 0 9 0;
#X connect 3 0 17 0;
#X connect 4 0 17 0;
#X connect 5 0 6 0;
#X connect 6 0 4 1;
#X connect 6 0 3 1;
#X connect 6 0 1 1;
#X connect 6 0 2 1;
#X connect 7 0 19 0;
#X connect 8 0 7 0;
#X connect 10 0 14 0;
#X connect 11 0 12 0;
#X connect 12 0 10 0;
#X connect 13 0 15 0;
#X connect 14 0 13 0;
#X connect 15 0 0 0;
#X connect 16 0 3 0;
#X connect 16 0 4 0;
#X connect 18 0 1 0;
#X connect 18 0 2 0;
#X connect 19 0 5 0;
#X connect 20 0 8 0;
#X connect 21 0 11 0;
