#N canvas 0 25 1274 694 10;
#X obj 164 384 outlet~;
#X obj 169 302 swap~;
#X obj 130 130 metro 100;
#X obj 130 160 random 2000;
#X obj 131 80 inlet;
#X obj 82 90 bng 15 250 50 0 empty empty empty 17 7 0 10 -262144 -1
-1;
#X obj 123 207 osc~ 220;
#X connect 1 0 0 0;
#X connect 2 0 3 0;
#X connect 3 0 6 0;
#X connect 4 0 2 0;
#X connect 5 0 2 0;
#X connect 6 0 1 0;
