#N canvas 0 25 1274 694 10;
#X obj 331 455 *~;
#X obj 331 367 vline~;
#X obj 331 389 *~;
#X obj 457 347 noise~;
#X obj 321 14 inlet;
#X obj 331 476 outlet~;
#X obj 508 9 inlet;
#X msg 331 345 1 1 0 \, 0 \$1 1;
#X obj 483 417 bp~ \$1 8;
#X connect 0 0 5 0;
#X connect 1 0 2 0;
#X connect 1 0 2 1;
#X connect 2 0 0 0;
#X connect 3 0 8 0;
#X connect 4 0 7 0;
#X connect 6 0 8 1;
#X connect 7 0 1 0;
#X connect 8 0 0 1;
