#N canvas 0 25 1280 696 10;
#X obj 253 265 clip~ 0 1;
#X obj 326 264 noise~;
#X obj 253 306 lop~ 30;
#X obj 208 152 noise~;
#X obj 326 285 hip~ 1000;
#X obj 253 381 hip~ 100;
#X obj 253 245 *~ 600;
#X obj 253 285 hip~ 10;
#X obj 208 174 bp~ 9 15;
#X obj 281 166 osc~ 9;
#X obj 208 196 *~;
#X obj 281 214 *~;
#X obj 297 192 == 0;
#X obj 297 143 tgl 15 0 empty empty break 0 -6 1 8 -262144 -1 -1 0
1;
#X obj 326 306 bp~ 590 4;
#X obj 185 354 bp~ 470 8;
#X obj 253 354 bp~ 780 9;
#X obj 321 354 bp~ 1024 10;
#X obj 253 403 *~ 2;
#X obj 253 329 *~;
#X obj 280 80 inlet;
#X obj 253 428 outlet~;
#X connect 0 0 7 0;
#X connect 1 0 4 0;
#X connect 2 0 19 0;
#X connect 3 0 8 0;
#X connect 4 0 14 0;
#X connect 5 0 18 0;
#X connect 6 0 0 0;
#X connect 7 0 2 0;
#X connect 8 0 10 0;
#X connect 9 0 11 0;
#X connect 10 0 6 0;
#X connect 11 0 6 0;
#X connect 12 0 11 1;
#X connect 13 0 12 0;
#X connect 13 0 10 1;
#X connect 14 0 19 1;
#X connect 15 0 5 0;
#X connect 16 0 5 0;
#X connect 17 0 5 0;
#X connect 18 0 21 0;
#X connect 19 0 15 0;
#X connect 19 0 16 0;
#X connect 19 0 17 0;
#X connect 20 0 13 0;
