#N canvas 0 25 1274 694 10;
#X obj 232 345 sig~ 1;
#X obj 232 469 /~;
#X obj 248 428 *~;
#X obj 248 449 +~ 1;
#X obj 306 489 unpack f f f;
#X msg 330 298 400 1900 2550;
#X msg 316 276 280 2250 2900;
#X msg 340 318 550 1770 2490;
#X obj 296 527 bp~ 1 34;
#X obj 231 528 bp~ 1 34;
#X obj 168 528 bp~ 1 34;
#X msg 352 339 690 1660 2490;
#X msg 364 360 640 1190 2390;
#X msg 378 382 310 870 2250;
#X msg 393 405 450 1030 2380;
#X msg 406 428 500 1500 2500;
#X msg 423 450 710 1100 2640;
#X obj 248 386 osc~;
#X obj 232 490 -~ 0.5;
#X obj 230 558 clip~ -1 1;
#X obj 248 407 *~ 24;
#X obj 337 106 bng 15 250 50 0 empty empty empty 17 7 0 10 -262144
-1 -1;
#X obj 331 212 route 1 2 3 4 5 6 7 8;
#X obj 334 171 random 9;
#X obj 337 137 metro 300;
#X obj 248 365 sig~ 50;
#X obj 328 73 inlet;
#X obj 226 609 outlet~;
#X connect 0 0 1 0;
#X connect 1 0 18 0;
#X connect 2 0 3 0;
#X connect 3 0 1 1;
#X connect 4 0 10 1;
#X connect 4 1 9 1;
#X connect 4 2 8 1;
#X connect 5 0 4 0;
#X connect 6 0 4 0;
#X connect 7 0 4 0;
#X connect 8 0 19 0;
#X connect 9 0 19 0;
#X connect 10 0 19 0;
#X connect 11 0 4 0;
#X connect 12 0 4 0;
#X connect 13 0 4 0;
#X connect 14 0 4 0;
#X connect 15 0 4 0;
#X connect 16 0 4 0;
#X connect 17 0 20 0;
#X connect 18 0 8 0;
#X connect 18 0 9 0;
#X connect 18 0 10 0;
#X connect 19 0 27 0;
#X connect 20 0 2 0;
#X connect 20 0 2 1;
#X connect 21 0 24 0;
#X connect 22 0 6 0;
#X connect 22 1 5 0;
#X connect 22 2 7 0;
#X connect 22 3 11 0;
#X connect 22 4 12 0;
#X connect 22 5 13 0;
#X connect 22 6 14 0;
#X connect 22 7 15 0;
#X connect 22 8 16 0;
#X connect 23 0 22 0;
#X connect 24 0 23 0;
#X connect 25 0 17 0;
#X connect 26 0 21 0;
