#N canvas 1 84 1274 666 10;
#X obj 131 -153 catch~ \$1-g;
#X obj 37 320 throw~ gauche;
#X obj 272 -149 catch~ \$1-d;
#X obj 94 290 throw~ droite;
#X obj 45 235 *~;
#X obj 136 237 *~;
#X obj 707 156 vsl 15 105 0 1 0 0 \$0-volume-level empty Vol 0 -9 0
10 -258113 -1 -1 10400 1;
#X obj 873 289 random-\$1;
#X obj 750 265 knob 25 25 0.01 1 1 0 \$0-reverb-level empty Reverb
0 -8 0 8 -4160 -1 -1 0 1;
#X obj 450 259 *~;
#X obj 409 332 throw~ reverb-g;
#X obj 499 263 *~;
#X obj 494 308 throw~ reverb-d;
#X obj 446 200 r \$0-reverb-level;
#X obj 70 193 r \$0-volume-level;
#X obj 708 119 tgl 15 0 empty empty On/Off 0 -10 0 10 -258113 -1 -1
1 1;
#X obj 838 205 select 0 1;
#X obj 838 235 bng 15 250 50 0 empty empty empty 17 7 0 10 -262144
-1 -1;
#X obj 906 234 bng 15 250 50 0 empty empty empty 17 7 0 10 -262144
-1 -1;
#X obj 749 222 knob 25 25 0.01 1 1 0 \$0-low empty Eq_low 0 -8 0 8
-4160 -1 -1 0 1;
#X obj 750 180 knob 25 25 0.01 1 1 0 \$0-mid empty Eq_mid 0 -8 0 8
-4160 -1 -1 0 1;
#X obj 749 138 knob 25 25 0.01 1 1 0 \$0-high empty Eq_high 0 -8 0
8 -4160 -1 -1 0 1;
#X obj 70 89 eq3 _ _ _ _;
#X obj 127 -25 r \$0-high;
#X obj 137 1 r \$0-mid;
#X obj 157 24 r \$0-low;
#X obj 612 168 switch~;
#X obj 201 92 eq3 _ _ _ _;
#X obj 417 10 throw~ preview-g;
#X obj 538 12 throw~ preview-d;
#X obj 501 -34 *~;
#X obj 550 -30 *~;
#X obj 707 286 tgl 15 0 preview empty XX 0 -10 0 10 -258113 -1 -1 0
1;
#X obj 511 -81 r preview;
#X obj 702 36 inlet;
#X obj 758 31 inlet;
#X connect 0 0 9 0;
#X connect 0 0 22 0;
#X connect 0 0 30 1;
#X connect 2 0 11 0;
#X connect 2 0 27 0;
#X connect 2 0 31 0;
#X connect 4 0 1 0;
#X connect 5 0 3 0;
#X connect 9 0 10 0;
#X connect 11 0 12 0;
#X connect 13 0 9 1;
#X connect 13 0 11 1;
#X connect 14 0 4 1;
#X connect 14 0 5 1;
#X connect 15 0 16 0;
#X connect 15 0 26 0;
#X connect 16 0 17 0;
#X connect 16 1 18 0;
#X connect 17 0 7 1;
#X connect 18 0 7 0;
#X connect 22 0 4 0;
#X connect 23 0 22 1;
#X connect 23 0 27 1;
#X connect 24 0 22 2;
#X connect 24 0 27 2;
#X connect 25 0 22 3;
#X connect 25 0 27 3;
#X connect 27 0 5 0;
#X connect 30 0 28 0;
#X connect 31 0 29 0;
#X connect 33 0 30 1;
#X connect 33 0 31 1;
#X connect 34 0 6 0;
#X connect 35 0 15 0;
#X coords 0 -1 100 1 100 210 2 700 100;
