#N canvas 386 507 726 557 10;
#N canvas 876 360 804 679 FFGuassian 0;
#X obj 139 131 hsl 128 15 0 1 0 0 empty empty empty -2 -8 0 10 -262144
-1 -1 2500 1;
#X obj 239 179 hsl 128 15 0 1 0 0 empty empty empty -2 -8 0 10 -262144
-1 -1 0 1;
#X obj 277 205 hsl 128 15 0 1 0 0 empty empty empty -2 -8 0 10 -262144
-1 -1 0 1;
#X obj 308 225 hsl 128 15 0 1 0 0 empty empty empty -2 -8 0 10 -262144
-1 -1 0 1;
#X obj 388 271 hsl 128 15 0 1 0 0 empty empty empty -2 -8 0 10 -262144
-1 -1 0 1;
#X obj 120 253 inlet;
#X obj 224 422 outlet;
#X obj 186 353 pix_freeframe GaussianBlur;
#X obj 77 292 pix_rgba;
#X obj 136 98 inlet;
#X connect 0 0 7 1;
#X connect 1 0 7 3;
#X connect 2 0 7 4;
#X connect 3 0 7 5;
#X connect 4 0 7 6;
#X connect 5 0 8 0;
#X connect 7 0 6 0;
#X connect 8 0 7 0;
#X connect 9 0 0 0;
#X restore 35 376 pd FFGuassian;
#X obj 132 281 hsl 128 15 0 100 0 0 empty empty empty -2 -8 0 10 -262144
-1 -1 0 1;
#X msg 20 -1 \; pd dsp 1;
#X obj 20 -44 loadbang;
#X obj 95 15 gemwin;
#X msg 95 -6 FSAA 4 \, create \, 1;
#N canvas 584 200 781 672 particle 0;
#X obj 303 130 part_color;
#X obj 303 157 part_size 0.4;
#X obj 303 53 inlet;
#X obj 304 411 part_render;
#X obj 127 141 gemmouse 8 8;
#X msg 127 247 \$1 \$2 0;
#X obj 127 220 pack f f;
#X obj 127 170 - 4;
#X obj 158 171 - 4;
#X obj 158 193 * -1;
#X obj 303 182 part_targetcolor 0 0 0 0 0.2;
#X obj 304 388 part_killold 30;
#X obj 303 285 part_source 6;
#X msg 452 261 -20;
#X msg 400 285 0 0 \$1;
#X msg 453 286 1;
#X obj 304 365 part_orbitpoint 0 1 0 0.08;
#X obj 303 206 part_velocity sphere 0 0 0 0.3;
#X obj 485 259 r particleHide;
#X obj 486 285 r particleShow;
#X obj 184 52 r particleMode;
#X obj 304 76 alpha;
#X msg 444 97 1 0.5 0.2;
#X msg 400 98 1 0 0;
#X obj 400 70 loadbang;
#X obj 304 434 circle 0.3;
#X obj 270 234 gate 2;
#X obj 129 282 part_source 12;
#X obj 303 99 part_head;
#N canvas 0 22 204 258 audioEnv 0;
#X obj 27 23 adc~;
#X obj 27 70 env~;
#X obj 27 105 - 20;
#X obj 27 164 t b;
#X obj 72 163 t b;
#X obj 27 130 moses 20;
#X obj 26 187 s particleHide;
#X obj 72 211 s particleShow;
#X connect 0 0 1 0;
#X connect 0 1 1 0;
#X connect 1 0 2 0;
#X connect 2 0 5 0;
#X connect 3 0 6 0;
#X connect 4 0 7 0;
#X connect 5 0 3 0;
#X connect 5 1 4 0;
#X restore 451 236 pd audioEnv;
#X connect 0 0 1 0;
#X connect 1 0 10 0;
#X connect 2 0 21 0;
#X connect 3 0 25 0;
#X connect 4 0 7 0;
#X connect 4 1 8 0;
#X connect 5 0 27 3;
#X connect 6 0 5 0;
#X connect 7 0 6 0;
#X connect 8 0 9 0;
#X connect 9 0 6 1;
#X connect 10 0 17 0;
#X connect 11 0 3 0;
#X connect 12 0 16 0;
#X connect 13 0 14 0;
#X connect 14 0 12 3;
#X connect 15 0 14 0;
#X connect 16 0 11 0;
#X connect 17 0 26 1;
#X connect 18 0 13 0;
#X connect 19 0 15 0;
#X connect 20 0 26 0;
#X connect 21 0 28 0;
#X connect 22 0 0 2;
#X connect 23 0 0 1;
#X connect 24 0 23 0;
#X connect 24 0 22 0;
#X connect 26 0 27 0;
#X connect 26 1 12 0;
#X connect 27 0 16 0;
#X connect 28 0 0 0;
#X restore 20 105 pd particle;
#N canvas 373 437 553 347 pixBufferWrite 0;
#X obj 20 104 gemframebuffer;
#X obj 20 202 t a b;
#X msg 47 229 snap;
#X obj 20 280 t a b;
#X msg 60 280 1;
#X obj 20 305 pix_buffer_write \$0-framebuffer;
#X obj 36 57 loadbang;
#X obj 20 127 translateXYZ 0 0 -4;
#X msg 36 77 dimen 500 500;
#X obj 20 253 pix_snap 0 0 500 500;
#X obj 20 24 gemhead 20;
#X obj 20 150 t a a;
#X obj 47 177 outlet;
#X text 156 41 You can render a scene into a framebuffer \, then take
a snapshot of the framebuffer with [pix_snap] and use this as an ordinary
pix (where you can apply effects and all kind of weird things);
#X text 156 19 From GEM help files:;
#X obj 157 127 pix_buffer \$0-framebuffer 2;
#X connect 0 0 7 0;
#X connect 1 0 9 0;
#X connect 1 1 2 0;
#X connect 2 0 9 0;
#X connect 3 0 5 0;
#X connect 3 1 4 0;
#X connect 4 0 5 1;
#X connect 6 0 8 0;
#X connect 7 0 11 0;
#X connect 8 0 0 0;
#X connect 9 0 3 0;
#X connect 10 0 0 0;
#X connect 11 0 1 0;
#X connect 11 1 12 0;
#X restore 20 82 pd pixBufferWrite;
#N canvas 740 237 701 498 pixBufferRead 0;
#X obj 40 73 t a b;
#X msg 82 74 1;
#X obj 40 97 pix_buffer_read \$0-framebuffer;
#X obj 40 139 outlet;
#X obj 40 52 gemhead 30;
#X connect 0 0 2 0;
#X connect 0 1 1 0;
#X connect 1 0 2 1;
#X connect 2 0 3 0;
#X connect 4 0 0 0;
#X restore 52 255 pd pixBufferRead;
#X obj 19 439 pix_texture;
#X obj 19 463 square 4;
#X obj 98 415 loadbang;
#X obj 52 281 GLSL/bloom;
#X msg 98 437 mode 0;
#X obj 351 79 s particleMode;
#X text 381 51 Sound reactive;
#X obj 351 8 vradio 20 1 0 3 empty empty empty 0 -8 0 10 -257985 -1
-1 1;
#X text 382 29 Mouse reactive;
#N canvas 0 22 450 300 cpuMeter 0;
#X obj 128 178 cputime;
#X obj 128 38 loadbang;
#X obj 128 122 metro 1000;
#X msg 128 66 1;
#X floatatom 128 94 0 0 0 0 - - -;
#X obj 128 150 t b b;
#X obj 128 238 * 0.1;
#X obj 128 207 int;
#X obj 128 269 outlet;
#X connect 0 0 7 0;
#X connect 1 0 3 0;
#X connect 2 0 5 0;
#X connect 3 0 4 0;
#X connect 4 0 2 0;
#X connect 5 0 0 0;
#X connect 5 1 0 1;
#X connect 6 0 8 0;
#X connect 7 0 6 0;
#X restore 349 146 pd cpuMeter;
#X floatatom 349 170 5 0 0 0 - - -;
#X text 381 7 Stop;
#X obj 19 312 gate 3;
#X obj 19 154 vradio 20 1 0 4 empty empty empty 0 -8 0 10 -257985 -1
-1 0;
#N canvas 662 38 712 607 smoothConvolve 0;
#X obj 271 284 cnv 15 100 40 empty empty empty 20 12 0 14 -233017 -66577
0;
#X floatatom 287 283 3 -1 2 0 - - -;
#X floatatom 310 283 3 -1 2 0 - - -;
#X floatatom 333 283 3 -1 2 0 - - -;
#X floatatom 287 297 3 -1 2 0 - - -;
#X floatatom 310 297 3 -1 2 0 - - -;
#X floatatom 333 297 3 -1 2 0 - - -;
#X floatatom 287 311 3 -1 2 0 - - -;
#X floatatom 310 311 3 -1 2 0 - - -;
#X floatatom 333 311 3 -1 2 0 - - -;
#N canvas 0 22 450 469 pack 0;
#X obj 69 169 pack 0 0 0 0 0 0 0 0 0;
#X obj 69 139 t b f;
#X obj 106 139 t b f;
#X obj 143 139 t b f;
#X obj 180 139 t b f;
#X obj 217 139 t b f;
#X obj 254 139 t b f;
#X obj 291 139 t b f;
#X obj 328 139 t b f;
#X obj 32 111 inlet;
#X obj 69 111 inlet;
#X obj 106 111 inlet;
#X obj 143 111 inlet;
#X obj 180 111 inlet;
#X obj 217 111 inlet;
#X obj 254 111 inlet;
#X obj 291 111 inlet;
#X obj 328 111 inlet;
#X obj 61 349 outlet;
#X obj 274 355 outlet;
#X obj 71 190 t l l;
#X obj 257 232 unpack 0 0 0 0 0 0 0 0 0;
#X obj 399 256 +;
#X obj 358 256 +;
#X obj 318 256 +;
#X obj 277 256 +;
#X obj 379 286 +;
#X obj 298 286 +;
#X obj 349 316 +;
#X obj 268 316 +;
#X obj 58 294 select 0;
#X msg 48 323 1;
#X obj 132 391 /;
#X msg 132 365 1 \$1;
#X connect 0 0 20 0;
#X connect 1 0 0 0;
#X connect 1 1 0 1;
#X connect 2 0 0 0;
#X connect 2 1 0 2;
#X connect 3 0 0 0;
#X connect 3 1 0 3;
#X connect 4 0 0 0;
#X connect 4 1 0 4;
#X connect 5 0 0 0;
#X connect 5 1 0 5;
#X connect 6 0 0 0;
#X connect 6 1 0 6;
#X connect 7 0 0 0;
#X connect 7 1 0 7;
#X connect 8 0 0 0;
#X connect 8 1 0 8;
#X connect 9 0 0 0;
#X connect 10 0 1 0;
#X connect 11 0 2 0;
#X connect 12 0 3 0;
#X connect 13 0 4 0;
#X connect 14 0 5 0;
#X connect 15 0 6 0;
#X connect 16 0 7 0;
#X connect 17 0 8 0;
#X connect 20 0 21 0;
#X connect 20 1 19 0;
#X connect 21 0 29 0;
#X connect 21 1 25 0;
#X connect 21 2 25 1;
#X connect 21 3 24 0;
#X connect 21 4 24 1;
#X connect 21 5 23 0;
#X connect 21 6 23 1;
#X connect 21 7 22 0;
#X connect 21 8 22 1;
#X connect 22 0 26 1;
#X connect 23 0 26 0;
#X connect 24 0 27 1;
#X connect 25 0 27 0;
#X connect 26 0 28 1;
#X connect 27 0 28 0;
#X connect 28 0 29 1;
#X connect 29 0 30 0;
#X connect 30 0 31 0;
#X connect 30 1 33 0;
#X connect 31 0 18 0;
#X connect 32 0 18 0;
#X connect 33 0 32 0;
#X restore 266 325 pd pack 9 . . .;
#X obj 233 367 pix_convolve 3 3;
#X floatatom 266 350 5 0 0 1 scale - -;
#N canvas 411 476 605 305 unpack 0;
#X obj 60 270 outlet;
#X obj 111 270 outlet;
#X obj 164 270 outlet;
#X obj 215 270 outlet;
#X obj 266 270 outlet;
#X obj 317 270 outlet;
#X obj 370 270 outlet;
#X obj 421 270 outlet;
#X obj 471 271 outlet;
#X obj 179 173 unpack 0 0 0 0 0 0 0 0 0;
#X obj 130 13 inlet;
#X obj 130 40 route edge1 edge2 smooth none;
#X msg 130 124 -1 -1 -1 -1 8 -1 -1 -1 -1;
#X msg 179 102 -1 -4 -1 -4 20 -4 -1 -4 -1;
#X msg 229 82 1 2 1 2 4 2 1 2 1;
#X msg 278 62 0 0 0 0 1 0 0 0 0;
#X connect 9 0 0 0;
#X connect 9 1 1 0;
#X connect 9 2 2 0;
#X connect 9 3 3 0;
#X connect 9 4 4 0;
#X connect 9 5 5 0;
#X connect 9 6 6 0;
#X connect 9 7 7 0;
#X connect 9 8 8 0;
#X connect 10 0 11 0;
#X connect 11 0 12 0;
#X connect 11 1 13 0;
#X connect 11 2 14 0;
#X connect 11 3 15 0;
#X connect 12 0 9 0;
#X connect 13 0 9 0;
#X connect 14 0 9 0;
#X connect 15 0 9 0;
#X restore 255 266 pd unpack 9 . . .;
#X msg 275 243 smooth;
#X obj 277 216 loadbang;
#X obj 188 261 inlet;
#X obj 220 399 outlet;
#X connect 1 0 10 0;
#X connect 2 0 10 1;
#X connect 3 0 10 2;
#X connect 4 0 10 3;
#X connect 5 0 10 4;
#X connect 6 0 10 5;
#X connect 7 0 10 6;
#X connect 8 0 10 7;
#X connect 9 0 10 8;
#X connect 10 0 12 0;
#X connect 10 1 11 2;
#X connect 11 0 17 0;
#X connect 12 0 11 1;
#X connect 13 0 1 0;
#X connect 13 1 2 0;
#X connect 13 2 3 0;
#X connect 13 3 4 0;
#X connect 13 4 5 0;
#X connect 13 5 6 0;
#X connect 13 6 7 0;
#X connect 13 7 8 0;
#X connect 13 8 9 0;
#X connect 14 0 13 0;
#X connect 15 0 14 0;
#X connect 16 0 11 0;
#X restore 52 342 pd smoothConvolve;
#X obj 133 376 hsl 128 15 0 1 0 0 empty empty empty -2 -8 0 10 -262144
-1 -1 2500 1;
#X text 271 374 FreeFrame Blurring;
#X text 271 279 GLSL Blooming;
#X text 47 153 None;
#X text 47 175 GLSL Bloom;
#X text 48 195 GLSL Bloom + FreeFrame Blur;
#X text 48 216 GLSL Bloom + Pix Convolution Smooth;
#X text 92 -46 Create window with antialiasing;
#X text 87 -31 and turn audio on.;
#X text 432 141 This is CPU usage \, look what;
#X text 433 156 happens when turning on effects;
#X text 346 -42 Particle behaviour (if sound reactive is on;
#X text 341 -26 you should make some noise to see any effect);
#N canvas 684 325 427 117 credits 0;
#X text 16 17 FreeFrame FX by Pete Warden;
#X text 17 33 http://petewarden.com/;
#X text 20 83 http://myheroics.wordpress.com/2008/09/04/glsl-bloom-shader/
;
#X text 20 64 Bloom GLSL script by My Heroics;
#X restore 601 441 pd credits;
#X text 162 254 This reads pictures from [pix_buffer];
#X text 18 55 This stores pictures in [pix_buffer];
#X connect 0 0 9 0;
#X connect 1 0 12 1;
#X connect 3 0 2 0;
#X connect 3 0 5 0;
#X connect 5 0 4 0;
#X connect 7 0 6 0;
#X connect 8 0 12 0;
#X connect 9 0 10 0;
#X connect 11 0 13 0;
#X connect 12 0 21 1;
#X connect 13 0 9 0;
#X connect 16 0 14 0;
#X connect 18 0 19 0;
#X connect 21 0 9 0;
#X connect 21 1 0 0;
#X connect 21 2 23 0;
#X connect 22 0 21 0;
#X connect 23 0 9 0;
#X connect 24 0 0 1;
