#N canvas 417 221 450 300 10;
#X obj 155 17 inlet~ L;
#X obj 223 17 inlet~ R;
#X obj 155 95 outlet~ L;
#X obj 223 95 outlet~ R;
#X obj 155 43 *~ 8;
#X obj 224 56 *~ 8;
#X obj 306 26 inlet;
#X obj 215 184 dac~;
#X connect 0 0 4 0;
#X connect 1 0 5 0;
#X connect 4 0 2 0;
#X connect 4 0 7 0;
#X connect 5 0 3 0;
#X connect 5 0 7 1;
#X connect 6 0 5 1;
#X connect 6 0 4 1;
