#N canvas 1 89 450 300 10;
#X obj 194 234 autoscale 0 1;
#X msg 238 164 load 0 127;
#X obj 244 134 loadbang;
#X obj 301 140 initbang;
#X obj 210 109 ctlin \$1;
#X msg 236 196 0;
#X msg 273 196 1;
#X obj 261 269 outlet;
#X connect 0 0 7 0;
#X connect 1 0 0 0;
#X connect 2 0 1 0;
#X connect 2 0 5 0;
#X connect 2 0 6 0;
#X connect 3 0 1 0;
#X connect 3 0 5 0;
#X connect 3 0 6 0;
#X connect 4 0 0 0;
#X connect 5 0 0 1;
#X connect 6 0 0 2;
